<svg xmlns="http://www.w3.org/2000/svg" style="display: none;"><symbol id="sitemap" viewBox="0 0 512 512"><title>sitemap</title><path d="M477.867,357.333h-19.2v-70.635c0-30.56-29.195-57.365-62.475-57.365H266.667v-64h29.867 c18.837-0.035,34.098-15.297,34.133-34.133V60.8c-0.035-18.837-15.297-34.098-34.133-34.133h-81.067 c-18.837,0.035-34.098,15.297-34.133,34.133v70.4c0.035,18.837,15.297,34.098,34.133,34.133h29.867v64H115.808 c-33.28,0-62.475,26.805-62.475,57.365v70.635h-19.2C15.297,357.369,0.035,372.63,0,391.467V451.2 c0.035,18.837,15.297,34.098,34.133,34.133h59.733c18.837-0.035,34.098-15.297,34.133-34.133v-59.733 c-0.035-18.837-15.297-34.098-34.133-34.133h-19.2v-70.635c0-20.629,21.717-36.032,41.141-36.032h129.525v106.667h-19.2 c-18.837,0.035-34.098,15.297-34.133,34.133V451.2c0.035,18.837,15.297,34.098,34.133,34.133h59.733 c18.837-0.035,34.098-15.297,34.133-34.133v-59.733c-0.035-18.837-15.297-34.098-34.133-34.133h-19.2V250.667h129.525 c19.424,0,41.141,15.403,41.141,36.032v70.635h-19.2c-18.837,0.035-34.098,15.297-34.133,34.133V451.2 c0.035,18.837,15.297,34.098,34.133,34.133h59.733c18.837-0.035,34.098-15.297,34.133-34.133v-59.733 C511.965,372.63,496.703,357.369,477.867,357.333z M93.867,378.667c7.069,0,12.8,5.731,12.8,12.8V451.2 c0,7.069-5.731,12.8-12.8,12.8H34.133c-7.069,0-12.8-5.731-12.8-12.8v-59.733c0-7.069,5.731-12.8,12.8-12.8H93.867z M285.867,378.667c7.069,0,12.8,5.731,12.8,12.8V451.2c0,7.069-5.731,12.8-12.8,12.8h-59.733c-7.069,0-12.8-5.731-12.8-12.8 v-59.733c0-7.069,5.731-12.8,12.8-12.8H285.867z M215.467,144c-7.069,0-12.8-5.731-12.8-12.8V60.8c0-7.069,5.731-12.8,12.8-12.8 h81.067c7.069,0,12.8,5.731,12.8,12.8v70.4c0,7.069-5.731,12.8-12.8,12.8H215.467z M490.667,451.2c0,7.069-5.731,12.8-12.8,12.8 h-59.733c-7.069,0-12.8-5.731-12.8-12.8v-59.733c0-7.069,5.731-12.8,12.8-12.8h59.733c7.069,0,12.8,5.731,12.8,12.8V451.2z"/></symbol><symbol id="save" viewBox="0 0 512.001 512.001"><title>save</title><g> <g> <path d="M486.489,255.827l-23.229-2.909c-7.062-17.278-17.208-33.26-29.818-47.088l17.079-72.354 c0.702-2.974,0.006-6.105-1.89-8.501c-1.896-2.396-4.783-3.794-7.838-3.796l-2.185-0.001c-0.013,0-0.022,0-0.035,0 c-28.351,0-53.902,17.838-63.952,44.002c-7.108-2.825-14.415-5.152-21.867-6.915c-5.375-1.271-10.762,2.054-12.033,7.43 c-1.271,5.375,2.055,10.762,7.43,12.033c25.455,6.021,48.162,18.893,66.06,36.756c0.654,0.958,1.469,1.806,2.427,2.492 c13.047,13.694,23.36,30.124,30.05,48.536c1.281,3.528,4.432,6.042,8.156,6.508l29.162,3.651c4.559,0.571,7.996,4.466,7.996,9.06 v50.417c0,4.594-3.438,8.489-7.996,9.06l-27.023,3.383c-3.887,0.486-7.132,3.197-8.302,6.936 c-8.017,25.615-23.249,48.266-44.052,65.502c-2.293,1.9-3.62,4.723-3.62,7.7v55.274c0,4.961-4.036,8.997-8.996,8.997h-58.007 c-4.961,0-8.997-4.036-8.997-8.997v-21.066c0-5.523-4.478-10-10-10h-84.014c-5.522,0-10,4.477-10,10v21.066 c0,4.961-4.036,8.997-8.997,8.997H153.99c-4.96,0-8.996-4.036-8.996-8.997v-39.029c0-3.667-2.007-7.039-5.229-8.788 C94.883,410.818,67,363.987,67,312.969C67,236.341,129.341,174,205.969,174H218.5c5.522,0,10-4.477,10-10s-4.478-10-10-10h-12.531 c-74.232,0-136.737,51.147-154.142,120.05H44.5c-13.51,0-24.5-10.991-24.5-24.5c0-13.509,10.99-24.5,24.5-24.5 c5.522,0,10-4.477,10-10s-4.478-10-10-10c-24.537,0-44.5,19.962-44.5,44.5c0,24.538,19.963,44.5,44.5,44.5h3.631 C47.391,300.256,47,306.567,47,312.969c0,56.349,29.734,108.232,77.993,136.827v33.208c0,15.989,13.008,28.997,28.996,28.997 h58.007c15.989,0,28.997-13.008,28.997-28.997v-11.066h64.014v11.066c0,15.989,13.008,28.997,28.997,28.997h58.007 c15.988,0,28.996-13.008,28.996-28.997V432.34c20.304-17.857,35.626-40.382,44.694-65.684l20.787-2.603 c14.544-1.82,25.512-14.247,25.512-28.905v-50.417C512,270.074,501.033,257.647,486.489,255.827z M416.648,189.917 c-7.46-6.102-15.45-11.508-23.854-16.15c5.525-15.875,19.001-27.687,35.072-31.375L416.648,189.917z"/> </g> </g><g> <g> <path d="M398.07,253.93c-1.859-1.86-4.439-2.93-7.069-2.93s-5.21,1.07-7.07,2.93c-1.86,1.86-2.93,4.44-2.93,7.07 s1.069,5.21,2.93,7.07c1.861,1.86,4.44,2.93,7.07,2.93s5.21-1.07,7.069-2.93c1.86-1.86,2.931-4.44,2.931-7.07 S399.93,255.79,398.07,253.93z"/> </g> </g><g> <g> <path d="M293.242,58.333c-5.522,0-10,4.477-10,10v39.665c0,5.523,4.478,10,10,10c5.522,0,10-4.477,10-10V68.333 C303.242,62.811,298.765,58.333,293.242,58.333z"/> </g> </g><g> <g> <path d="M300.31,24.98c-1.859-1.86-4.439-2.93-7.069-2.93c-2.631,0-5.21,1.07-7.07,2.93c-1.86,1.86-2.93,4.44-2.93,7.07 c0,2.64,1.069,5.21,2.93,7.07c1.86,1.86,4.439,2.93,7.07,2.93c2.63,0,5.21-1.07,7.069-2.93c1.86-1.86,2.931-4.44,2.931-7.07 S302.17,26.85,300.31,24.98z"/> </g> </g><g> <g> <path d="M212,0c-5.522,0-10,4.477-10,10v17c0,5.523,4.478,10,10,10c5.522,0,10-4.477,10-10V10C222,4.477,217.523,0,212,0z"/> </g> </g><g> <g> <path d="M113.938,312.969c0-5.523-4.478-10-10-10c-5.522,0-10,4.477-10,10l0.001,0.531c0.034,5.501,4.505,9.938,9.999,9.938 c0.02,0,0.041,0,0.063,0c5.522-0.035,9.972-4.54,9.938-10.063L113.938,312.969z"/> </g> </g><g> <g> <path d="M158.203,391.651c-17.383-10.579-30.952-26.832-38.206-45.765c-1.977-5.159-7.76-7.738-12.916-5.76 c-5.157,1.976-7.736,7.758-5.76,12.916c8.83,23.047,25.339,42.826,46.486,55.694c1.624,0.988,3.417,1.459,5.188,1.459 c3.375,0,6.67-1.709,8.553-4.803C164.419,400.674,162.92,394.522,158.203,391.651z"/> </g> </g><g> <g> <path d="M212,48.052c-23.159,0-42,18.841-42,42s18.841,42,42,42s42-18.841,42-42S235.159,48.052,212,48.052z M212,112.052 c-12.131,0-22-9.869-22-22s9.869-22,22-22s22,9.869,22,22S224.131,112.052,212,112.052z"/> </g> </g><g> <g> <path d="M338,212h-9c3.954-6.403,6.242-13.938,6.242-22c0-23.159-18.841-42-42-42s-42,18.841-42,42 c-0.001,8.062,2.287,15.597,6.241,22H208c-5.522,0-10,4.477-10,10s4.478,10,10,10h130c5.522,0,10-4.477,10-10S343.523,212,338,212 z M293.242,212c-12.131,0-22-9.869-22-22s9.869-22,22-22c12.131,0,22,9.869,22,22S305.372,212,293.242,212z"/> </g> </g></symbol><symbol id="survey" viewBox="-51 0 512 512"><title>survey</title><path d="m401.5 124.066406c4.144531 0 7.5-3.359375 7.5-7.5v-71.066406c0-14.335938-11.664062-26-26-26h-98.074219c-2.078125-11.085938-11.828125-19.5-23.507812-19.5h-113.835938c-11.679687 0-21.429687 8.414062-23.507812 19.5h-98.074219c-14.335938 0-26 11.664062-26 26v440.5c0 14.335938 11.664062 26 26 26h357c14.335938 0 26-11.664062 26-26v-341.433594c0-4.144531-3.355469-7.5-7.5-7.5s-7.5 3.355469-7.5 7.5v341.433594c0 6.066406-4.933594 11-11 11h-357c-6.066406 0-11-4.933594-11-11v-440.5c0-6.066406 4.933594-11 11-11h97.667969c.5625 7.449219-1.867188 15.214844 4.132812 24.023438h-81.300781c-4.144531 0-7.5 3.359374-7.5 7.5v194.726562c0 4.140625 3.355469 7.5 7.5 7.5s7.5-3.359375 7.5-7.5v-187.226562h112.683594c3.101562 22.480468 24.796875 37.003906 46.433594 31.996093 15.289062-3.542969 27.007812-16.109375 29.199218-31.996093h112.683594v384.453124h-301v-169.226562c0-4.140625-3.355469-7.5-7.5-7.5s-7.5 3.359375-7.5 7.5v176.726562c0 4.140626 3.355469 7.5 7.5 7.5h316c4.144531 0 7.5-3.359374 7.5-7.5v-399.453124c0-4.140626-3.355469-7.5-7.5-7.5h-81.300781c5.984375-8.789063 3.578125-16.667969 4.132812-24.023438h97.667969c6.066406 0 11 4.933594 11 11v71.066406c0 4.140625 3.355469 7.5 7.5 7.5zm-220.167969-55.734375v-6.820312c0-4.140625-3.355469-7.5-7.5-7.5h-26.25c-4.914062 0-8.914062-4-8.914062-8.914063v-21.183594c0-4.914062 4-8.914062 8.914062-8.914062h113.835938c4.914062 0 8.914062 4 8.914062 8.914062v21.183594c0 4.914063-4 8.914063-8.914062 8.914063h-26.25c-4.144531 0-7.5 3.359375-7.5 7.5v6.820312c0 12.773438-10.394531 23.167969-23.167969 23.167969s-23.167969-10.394531-23.167969-23.167969zm0 0"/><path d="m105.953125 200.261719h33.761719c11.976562 0 21.71875-9.742188 21.71875-21.714844v-33.765625c0-11.972656-9.742188-21.714844-21.71875-21.714844h-33.761719c-11.976563 0-21.71875 9.742188-21.71875 21.714844v33.765625c0 11.972656 9.742187 21.714844 21.71875 21.714844zm-6.71875-55.480469c0-3.703125 3.011719-6.714844 6.71875-6.714844h33.761719c3.703125 0 6.71875 3.011719 6.71875 6.714844v33.765625c0 3.703125-3.015625 6.714844-6.71875 6.714844h-33.761719c-3.707031 0-6.71875-3.011719-6.71875-6.714844zm0 0"/><path d="m187.265625 169.164062h130c4.140625 0 7.5-3.359374 7.5-7.5 0-4.140624-3.359375-7.5-7.5-7.5h-130c-4.144531 0-7.5 3.359376-7.5 7.5 0 4.140626 3.355469 7.5 7.5 7.5zm0 0"/><path d="m84.234375 282.632812c0 11.972657 9.742187 21.714844 21.71875 21.714844h33.761719c11.976562 0 21.71875-9.742187 21.71875-21.714844v-33.765624c0-11.972657-9.742188-21.714844-21.71875-21.714844h-33.761719c-11.976563 0-21.71875 9.742187-21.71875 21.714844zm15-33.765624c0-3.703126 3.011719-6.714844 6.71875-6.714844h33.761719c3.703125 0 6.71875 3.011718 6.71875 6.714844v33.765624c0 3.703126-3.015625 6.714844-6.71875 6.714844h-33.761719c-3.707031 0-6.71875-3.011718-6.71875-6.714844zm0 0"/><path d="m187.265625 273.25h130c4.140625 0 7.5-3.359375 7.5-7.5s-3.359375-7.5-7.5-7.5h-130c-4.144531 0-7.5 3.359375-7.5 7.5s3.355469 7.5 7.5 7.5zm0 0"/><path d="m84.234375 386.71875c0 11.972656 9.742187 21.714844 21.71875 21.714844h33.761719c11.976562 0 21.71875-9.742188 21.71875-21.714844v-33.765625c0-11.972656-9.742188-21.714844-21.71875-21.714844h-33.761719c-11.976563 0-21.71875 9.742188-21.71875 21.714844zm15-33.765625c0-3.703125 3.011719-6.714844 6.71875-6.714844h33.761719c3.703125 0 6.71875 3.011719 6.71875 6.714844v33.765625c0 3.703125-3.015625 6.714844-6.71875 6.714844h-33.761719c-3.707031 0-6.71875-3.011719-6.71875-6.714844zm0 0"/><path d="m187.265625 377.335938h130c4.140625 0 7.5-3.359376 7.5-7.5 0-4.140626-3.359375-7.5-7.5-7.5h-130c-4.144531 0-7.5 3.359374-7.5 7.5 0 4.140624 3.355469 7.5 7.5 7.5zm0 0"/></symbol><symbol id="wifi-signal" viewBox="0 0 493.746 493.746"><title>wifi-signal</title><path id="XMLID_362_" d="M212.524,356.921c-18.966,18.968-18.966,49.737,0,68.706c18.976,18.965,49.74,18.965,68.715,0 c18.965-18.969,18.965-49.738,0-68.706C262.264,337.952,231.5,337.952,212.524,356.921z"/><path id="XMLID_361_" d="M246.882,241.383c-40.027,0-77.683,15.591-105.971,43.907c-11.113,11.108-11.113,29.112,0,40.213 c11.104,11.108,29.1,11.108,40.213,0c17.546-17.571,40.907-27.244,65.758-27.244s48.213,9.673,65.759,27.244 c5.561,5.554,12.855,8.33,20.111,8.33c7.294,0,14.55-2.776,20.102-8.33c11.113-11.101,11.113-29.104,0-40.213 C324.565,256.974,286.909,241.383,246.882,241.383z"/><path id="XMLID_360_" d="M246.882,147.743c-65.053,0-126.209,25.335-172.199,71.331c-11.104,11.108-11.104,29.114,0,40.213 c11.112,11.108,29.118,11.108,40.212,0c35.248-35.258,82.129-54.672,131.986-54.672c49.837,0,96.718,19.414,131.967,54.672 c5.551,5.555,12.846,8.332,20.102,8.332c7.294,0,14.56-2.777,20.111-8.332c11.104-11.099,11.104-29.105,0-40.213 C373.071,173.078,311.935,147.743,246.882,147.743z"/><path id="XMLID_359_" d="M485.436,152.721c-63.711-63.733-148.425-98.825-238.554-98.825S72.039,88.988,8.328,152.721 c-11.104,11.109-11.104,29.115,0,40.214c5.561,5.554,12.836,8.329,20.111,8.329c7.275,0,14.57-2.775,20.102-8.329 c52.97-52.989,123.419-82.166,198.341-82.166c74.923,0,145.351,29.177,198.323,82.166c11.102,11.108,29.098,11.098,40.213,0.01 C496.52,181.836,496.52,163.83,485.436,152.721z"/></symbol><symbol id="maps-and-location" viewBox="-43 -20 662 662.66464"><title>maps-and-location</title><path d="m376.808594 445.527344h-.613282c-20.421874-.109375-37.074218 16.34375-37.214843 36.761718-.085938 9.78125 3.738281 19.1875 10.628906 26.125 6.886719 6.9375 16.265625 10.828126 26.042969 10.808594h.484375c.117187 0 .226562.199219.34375.199219 20.265625.085937 36.800781-16.210937 37-36.472656 0-.214844 0-.398438 0-.609375.042969-9.753906-3.800781-19.121094-10.679688-26.03125-6.886719-6.914063-16.238281-10.792969-25.992187-10.78125zm11.699218 37.203125c-.011718 3.136719-1.320312 6.128906-3.609374 8.269531-2.269532 2.152344-5.296876 3.316406-8.421876 3.238281h-.605468c-6.644532.148438-12.164063-5.097656-12.34375-11.742187v-.089844c0-6.761719 5.972656-11.898438 12.796875-11.898438h.265625c3.148437-.058593 6.1875 1.152344 8.429687 3.363282 2.246094 2.207031 3.5 5.230468 3.488281 8.375zm0 0"/><path d="m329.738281 411.925781c-4.886719 4.867188-4.902343 12.777344-.03125 17.664063 4.863281 4.886718 12.773438 4.90625 17.660157.035156 17.609374-17.464844 46.007812-17.464844 63.609374 0 4.890626 4.871094 12.796876 4.851562 17.667969-.035156 4.871094-4.886719 4.851563-12.796875-.035156-17.664063-27.367187-27.144531-71.503906-27.144531-98.871094 0zm0 0"/><path d="m303.230469 367.929688c-3.175781 3.152343-4.425781 7.761718-3.273438 12.085937 1.152344 4.328125 4.527344 7.703125 8.855469 8.855469 4.324219 1.152344 8.933594-.097656 12.085938-3.273438 32.203124-32.207031 85.046874-32.175781 117.800781.066406 3.171875 3.183594 7.808593 4.417969 12.140625 3.234376 4.332031-1.179688 7.699218-4.601563 8.8125-8.953126 1.113281-4.351562-.195313-8.960937-3.425782-12.085937-42.488281-41.828125-111.125-41.796875-152.996093.070313zm0 0"/><path d="m504.671875 279.851562v-267.359374c-.054687-4.261719-2.25-8.203126-5.835937-10.496094-3.585938-2.292969-8.089844-2.625-11.972657-.882813l-115.148437 52.082031-115.128906-52.082031c-3.273438-1.484375-7.027344-1.484375-10.304688 0l-115.121094 52.082031-115.121094-52.082031c-3.796874-1.753906-8.226562-1.414062-11.722656.882813-3.511718 2.320312-5.59375 6.285156-5.511718 10.496094v373.675781c-.082032 4.867187 2.71875 9.332031 7.136718 11.378906l120.167969 54.414063c3.246094 1.484374 6.976563 1.484374 10.222656 0l50.960938-23.066407c.484375 106.148438 86.972656 192.355469 193.230469 192.355469 106.554687 0 193.351562-86.683594 193.351562-193.25.109375-57.214844-25.257812-111.511719-69.203125-148.148438zm-24.980469-17.773437c-28.804687-17.042969-61.476562-26.425781-94.929687-27.269531v-159.839844l94.929687-43.117188zm-290.597656 138.515625-45.398438 20.628906v-346.253906l94.925782-43.117188v264.785157c-26.761719 28.769531-44.046875 65.058593-49.527344 103.964843zm74.511719-368.742188 96.175781 43.117188v160.976562c-34.914062 3.761719-68.152344 16.914063-96.175781 38.066407zm-239.820313 0 94.929688 43.117188v346.253906l-94.929688-43.117187zm356.738282 564.421876c-92.78125 0-168.265626-75.488282-168.265626-168.269532s75.484376-168.265625 168.265626-168.265625 168.265624 75.484375 168.265624 168.265625-75.484374 168.269532-168.265624 168.269532zm0 0"/></symbol><symbol id="phone" viewBox="0 0 482.6 482.6"><title>phone</title><path d="M98.339,320.8c47.6,56.9,104.9,101.7,170.3,133.4c24.9,11.8,58.2,25.8,95.3,28.2c2.3,0.1,4.5,0.2,6.8,0.2 c24.9,0,44.9-8.6,61.2-26.3c0.1-0.1,0.3-0.3,0.4-0.5c5.8-7,12.4-13.3,19.3-20c4.7-4.5,9.5-9.2,14.1-14 c21.3-22.2,21.3-50.4-0.2-71.9l-60.1-60.1c-10.2-10.6-22.4-16.2-35.2-16.2c-12.8,0-25.1,5.6-35.6,16.1l-35.8,35.8 c-3.3-1.9-6.7-3.6-9.9-5.2c-4-2-7.7-3.9-11-6c-32.6-20.7-62.2-47.7-90.5-82.4c-14.3-18.1-23.9-33.3-30.6-48.8 c9.4-8.5,18.2-17.4,26.7-26.1c3-3.1,6.1-6.2,9.2-9.3c10.8-10.8,16.6-23.3,16.6-36s-5.7-25.2-16.6-36l-29.8-29.8 c-3.5-3.5-6.8-6.9-10.2-10.4c-6.6-6.8-13.5-13.8-20.3-20.1c-10.3-10.1-22.4-15.4-35.2-15.4c-12.7,0-24.9,5.3-35.6,15.5l-37.4,37.4 c-13.6,13.6-21.3,30.1-22.9,49.2c-1.9,23.9,2.5,49.3,13.9,80C32.739,229.6,59.139,273.7,98.339,320.8z M25.739,104.2 c1.2-13.3,6.3-24.4,15.9-34l37.2-37.2c5.8-5.6,12.2-8.5,18.4-8.5c6.1,0,12.3,2.9,18,8.7c6.7,6.2,13,12.7,19.8,19.6 c3.4,3.5,6.9,7,10.4,10.6l29.8,29.8c6.2,6.2,9.4,12.5,9.4,18.7s-3.2,12.5-9.4,18.7c-3.1,3.1-6.2,6.3-9.3,9.4 c-9.3,9.4-18,18.3-27.6,26.8c-0.2,0.2-0.3,0.3-0.5,0.5c-8.3,8.3-7,16.2-5,22.2c0.1,0.3,0.2,0.5,0.3,0.8 c7.7,18.5,18.4,36.1,35.1,57.1c30,37,61.6,65.7,96.4,87.8c4.3,2.8,8.9,5,13.2,7.2c4,2,7.7,3.9,11,6c0.4,0.2,0.7,0.4,1.1,0.6 c3.3,1.7,6.5,2.5,9.7,2.5c8,0,13.2-5.1,14.9-6.8l37.4-37.4c5.8-5.8,12.1-8.9,18.3-8.9c7.6,0,13.8,4.7,17.7,8.9l60.3,60.2 c12,12,11.9,25-0.3,37.7c-4.2,4.5-8.6,8.8-13.3,13.3c-7,6.8-14.3,13.8-20.9,21.7c-11.5,12.4-25.2,18.2-42.9,18.2 c-1.7,0-3.5-0.1-5.2-0.2c-32.8-2.1-63.3-14.9-86.2-25.8c-62.2-30.1-116.8-72.8-162.1-127c-37.3-44.9-62.4-86.7-79-131.5 C28.039,146.4,24.139,124.3,25.739,104.2z"/></symbol><symbol id="mail" viewBox="0 0 512 512"><title>mail</title><path d="M467,61H45C20.218,61,0,81.196,0,106v300c0,24.72,20.128,45,45,45h422c24.72,0,45-20.128,45-45V106 C512,81.28,491.872,61,467,61z M460.786,91L256.954,294.833L51.359,91H460.786z M30,399.788V112.069l144.479,143.24L30,399.788z M51.213,421l144.57-144.57l50.657,50.222c5.864,5.814,15.327,5.795,21.167-0.046L317,277.213L460.787,421H51.213z M482,399.787 L338.213,256L482,112.212V399.787z"/></symbol><symbol id="pin" viewBox="0 0 512 512"><title>pin</title><g> <g> <path d="M256,0C156.748,0,76,80.748,76,180c0,33.534,9.289,66.26,26.869,94.652l142.885,230.257 c2.737,4.411,7.559,7.091,12.745,7.091c0.04,0,0.079,0,0.119,0c5.231-0.041,10.063-2.804,12.75-7.292L410.611,272.22 C427.221,244.428,436,212.539,436,180C436,80.748,355.252,0,256,0z M384.866,256.818L258.272,468.186l-129.905-209.34 C113.734,235.214,105.8,207.95,105.8,180c0-82.71,67.49-150.2,150.2-150.2S406.1,97.29,406.1,180 C406.1,207.121,398.689,233.688,384.866,256.818z"/> </g> </g><g> <g> <path d="M256,90c-49.626,0-90,40.374-90,90c0,49.309,39.717,90,90,90c50.903,0,90-41.233,90-90C346,130.374,305.626,90,256,90z M256,240.2c-33.257,0-60.2-27.033-60.2-60.2c0-33.084,27.116-60.2,60.2-60.2s60.1,27.116,60.1,60.2 C316.1,212.683,289.784,240.2,256,240.2z"/> </g> </g></symbol></svg>