<svg xmlns="http://www.w3.org/2000/svg" width="194.646" height="259.531" viewBox="0 0 194.646 259.531"><path d="M49.23,183.816c-4.4-4.4-2.109-3.163-12.733-6.007a36.572,36.572,0,0,1-12.89-6.752l-23,56.386A8.111,8.111,0,0,0,8.43,238.61l26.708-1.019,18.37,19.4a8.109,8.109,0,0,0,13.4-2.514l26.383-64.689a36.376,36.376,0,0,1-44.059-5.976Zm144.807,43.628-23-56.386a36.489,36.489,0,0,1-12.89,6.752c-10.68,2.859-8.338,1.612-12.733,6.007a36.383,36.383,0,0,1-44.064,5.976l26.383,64.689a8.109,8.109,0,0,0,13.4,2.514l18.375-19.4,26.708,1.019a8.113,8.113,0,0,0,7.821-11.167Zm-60.725-55.1c7.745-7.882,8.632-7.2,19.662-10.209a20.6,20.6,0,0,0,14.431-14.69c3.792-14.4,2.808-12.657,13.154-23.19a21.027,21.027,0,0,0,5.282-20.063c-3.786-14.385-3.792-12.378,0-26.779a21.027,21.027,0,0,0-5.282-20.063c-10.346-10.533-9.362-8.8-13.154-23.19a20.6,20.6,0,0,0-14.431-14.69c-14.132-3.857-12.429-2.849-22.785-13.387A20.169,20.169,0,0,0,110.477.708C96.35,4.56,98.322,4.565,84.169.708A20.157,20.157,0,0,0,64.456,6.086c-10.346,10.533-8.642,9.529-22.779,13.387a20.6,20.6,0,0,0-14.431,14.69c-3.786,14.39-2.808,12.657-13.154,23.19A21.015,21.015,0,0,0,8.811,77.415c3.786,14.375,3.792,12.368,0,26.774a21.04,21.04,0,0,0,5.282,20.068c10.346,10.533,9.362,8.794,13.154,23.19a20.6,20.6,0,0,0,14.431,14.69c11.344,3.092,12.191,2.605,19.657,10.209a20.145,20.145,0,0,0,25.213,2.95,20.111,20.111,0,0,1,21.558,0A20.138,20.138,0,0,0,133.312,172.345ZM49.5,89.2c0-26.88,21.411-48.671,47.82-48.671s47.82,21.791,47.82,48.671-21.411,48.671-47.82,48.671S49.5,116.075,49.5,89.2Z" transform="translate(0 0)" fill="#65ff00"/></svg>