<svg xmlns="http://www.w3.org/2000/svg" xmlns:xlink="http://www.w3.org/1999/xlink" width="152.625" height="197.5" viewBox="0 0 152.625 197.5"><defs><filter id="a" x="0" y="0" width="152.625" height="197.5" filterUnits="userSpaceOnUse"><feOffset dy="3" input="SourceAlpha"/><feGaussianBlur stdDeviation="3" result="b"/><feFlood flood-opacity="0.161"/><feComposite operator="in" in2="b"/><feComposite in="SourceGraphic"/></filter></defs><g transform="translate(9 6)"><g transform="matrix(1, 0, 0, 1, -9, -6)" filter="url(#a)"><path d="M117.8,22.438H89.75a22.438,22.438,0,0,0-44.875,0H16.828A16.832,16.832,0,0,0,0,39.266V162.672A16.832,16.832,0,0,0,16.828,179.5H117.8a16.832,16.832,0,0,0,16.828-16.828V39.266A16.832,16.832,0,0,0,117.8,22.438ZM33.656,148.648a8.414,8.414,0,1,1,8.414-8.414A8.394,8.394,0,0,1,33.656,148.648Zm0-33.656a8.414,8.414,0,1,1,8.414-8.414A8.394,8.394,0,0,1,33.656,114.992Zm0-33.656a8.414,8.414,0,1,1,8.414-8.414A8.394,8.394,0,0,1,33.656,81.336ZM67.313,14.023A8.414,8.414,0,1,1,58.9,22.438,8.394,8.394,0,0,1,67.313,14.023Zm44.875,129.016a2.813,2.813,0,0,1-2.8,2.8H58.9a2.813,2.813,0,0,1-2.8-2.8V137.43a2.813,2.813,0,0,1,2.8-2.8h50.484a2.813,2.813,0,0,1,2.8,2.8Zm0-33.656a2.813,2.813,0,0,1-2.8,2.8H58.9a2.813,2.813,0,0,1-2.8-2.8v-5.609a2.813,2.813,0,0,1,2.8-2.8h50.484a2.813,2.813,0,0,1,2.8,2.8Zm0-33.656a2.813,2.813,0,0,1-2.8,2.8H58.9a2.813,2.813,0,0,1-2.8-2.8V70.117a2.813,2.813,0,0,1,2.8-2.8h50.484a2.813,2.813,0,0,1,2.8,2.8Z" transform="translate(9 6)" fill="#fff"/></g></g></svg>