<svg xmlns="http://www.w3.org/2000/svg" width="71.711" height="48.406" viewBox="0 0 71.711 48.406">
  <path id="Icon_zocial-email" data-name="Icon zocial-email" d="M.072,48.187V8.355q0-.069.207-1.314L23.722,27.1.349,49.57a5.861,5.861,0,0,1-.277-1.383ZM3.184,4.275a2.98,2.98,0,0,1,1.176-.207H67.5a3.916,3.916,0,0,1,1.245.207L45.228,24.4l-3.112,2.489-6.155,5.048-6.155-5.048L26.7,24.4Zm.069,47.992L26.834,29.654l9.128,7.4,9.128-7.4L68.671,52.267a3.32,3.32,0,0,1-1.176.207H4.359a3.132,3.132,0,0,1-1.106-.207ZM48.2,27.1,71.575,7.042a4.128,4.128,0,0,1,.207,1.314V48.187a5.3,5.3,0,0,1-.207,1.383Z" transform="translate(-0.072 -4.068)" fill="#fff"/>
</svg>
