<svg xmlns="http://www.w3.org/2000/svg" width="233.789" height="259.765" viewBox="0 0 233.789 259.765"><path d="M180.231,132.162l-13.768-13.768-63.383,63.383L75.546,154.242,61.778,168.01l41.3,41.3ZM212.312,27.477H199.324V1.5H173.348V27.477H69.441V1.5H43.465V27.477H30.477A25.859,25.859,0,0,0,4.63,53.453L4.5,235.289a25.969,25.969,0,0,0,25.977,25.977H212.312a26.053,26.053,0,0,0,25.977-25.977V53.453A26.053,26.053,0,0,0,212.312,27.477Zm0,207.812H30.477V92.418H212.312Z" transform="translate(-4.5 -1.5)" fill="#65ff00"/></svg>