<svg xmlns="http://www.w3.org/2000/svg" style="display: none;"><symbol id="sitemap" viewBox="0 0 512 512"><title>sitemap</title><path d="M477.867,357.333h-19.2v-70.635c0-30.56-29.195-57.365-62.475-57.365H266.667v-64h29.867 c18.837-0.035,34.098-15.297,34.133-34.133V60.8c-0.035-18.837-15.297-34.098-34.133-34.133h-81.067 c-18.837,0.035-34.098,15.297-34.133,34.133v70.4c0.035,18.837,15.297,34.098,34.133,34.133h29.867v64H115.808 c-33.28,0-62.475,26.805-62.475,57.365v70.635h-19.2C15.297,357.369,0.035,372.63,0,391.467V451.2 c0.035,18.837,15.297,34.098,34.133,34.133h59.733c18.837-0.035,34.098-15.297,34.133-34.133v-59.733 c-0.035-18.837-15.297-34.098-34.133-34.133h-19.2v-70.635c0-20.629,21.717-36.032,41.141-36.032h129.525v106.667h-19.2 c-18.837,0.035-34.098,15.297-34.133,34.133V451.2c0.035,18.837,15.297,34.098,34.133,34.133h59.733 c18.837-0.035,34.098-15.297,34.133-34.133v-59.733c-0.035-18.837-15.297-34.098-34.133-34.133h-19.2V250.667h129.525 c19.424,0,41.141,15.403,41.141,36.032v70.635h-19.2c-18.837,0.035-34.098,15.297-34.133,34.133V451.2 c0.035,18.837,15.297,34.098,34.133,34.133h59.733c18.837-0.035,34.098-15.297,34.133-34.133v-59.733 C511.965,372.63,496.703,357.369,477.867,357.333z M93.867,378.667c7.069,0,12.8,5.731,12.8,12.8V451.2 c0,7.069-5.731,12.8-12.8,12.8H34.133c-7.069,0-12.8-5.731-12.8-12.8v-59.733c0-7.069,5.731-12.8,12.8-12.8H93.867z M285.867,378.667c7.069,0,12.8,5.731,12.8,12.8V451.2c0,7.069-5.731,12.8-12.8,12.8h-59.733c-7.069,0-12.8-5.731-12.8-12.8 v-59.733c0-7.069,5.731-12.8,12.8-12.8H285.867z M215.467,144c-7.069,0-12.8-5.731-12.8-12.8V60.8c0-7.069,5.731-12.8,12.8-12.8 h81.067c7.069,0,12.8,5.731,12.8,12.8v70.4c0,7.069-5.731,12.8-12.8,12.8H215.467z M490.667,451.2c0,7.069-5.731,12.8-12.8,12.8 h-59.733c-7.069,0-12.8-5.731-12.8-12.8v-59.733c0-7.069,5.731-12.8,12.8-12.8h59.733c7.069,0,12.8,5.731,12.8,12.8V451.2z"/></symbol><symbol id="save" viewBox="0 0 512.001 512.001"><title>save</title><g> <g> <path d="M486.489,255.827l-23.229-2.909c-7.062-17.278-17.208-33.26-29.818-47.088l17.079-72.354 c0.702-2.974,0.006-6.105-1.89-8.501c-1.896-2.396-4.783-3.794-7.838-3.796l-2.185-0.001c-0.013,0-0.022,0-0.035,0 c-28.351,0-53.902,17.838-63.952,44.002c-7.108-2.825-14.415-5.152-21.867-6.915c-5.375-1.271-10.762,2.054-12.033,7.43 c-1.271,5.375,2.055,10.762,7.43,12.033c25.455,6.021,48.162,18.893,66.06,36.756c0.654,0.958,1.469,1.806,2.427,2.492 c13.047,13.694,23.36,30.124,30.05,48.536c1.281,3.528,4.432,6.042,8.156,6.508l29.162,3.651c4.559,0.571,7.996,4.466,7.996,9.06 v50.417c0,4.594-3.438,8.489-7.996,9.06l-27.023,3.383c-3.887,0.486-7.132,3.197-8.302,6.936 c-8.017,25.615-23.249,48.266-44.052,65.502c-2.293,1.9-3.62,4.723-3.62,7.7v55.274c0,4.961-4.036,8.997-8.996,8.997h-58.007 c-4.961,0-8.997-4.036-8.997-8.997v-21.066c0-5.523-4.478-10-10-10h-84.014c-5.522,0-10,4.477-10,10v21.066 c0,4.961-4.036,8.997-8.997,8.997H153.99c-4.96,0-8.996-4.036-8.996-8.997v-39.029c0-3.667-2.007-7.039-5.229-8.788 C94.883,410.818,67,363.987,67,312.969C67,236.341,129.341,174,205.969,174H218.5c5.522,0,10-4.477,10-10s-4.478-10-10-10h-12.531 c-74.232,0-136.737,51.147-154.142,120.05H44.5c-13.51,0-24.5-10.991-24.5-24.5c0-13.509,10.99-24.5,24.5-24.5 c5.522,0,10-4.477,10-10s-4.478-10-10-10c-24.537,0-44.5,19.962-44.5,44.5c0,24.538,19.963,44.5,44.5,44.5h3.631 C47.391,300.256,47,306.567,47,312.969c0,56.349,29.734,108.232,77.993,136.827v33.208c0,15.989,13.008,28.997,28.996,28.997 h58.007c15.989,0,28.997-13.008,28.997-28.997v-11.066h64.014v11.066c0,15.989,13.008,28.997,28.997,28.997h58.007 c15.988,0,28.996-13.008,28.996-28.997V432.34c20.304-17.857,35.626-40.382,44.694-65.684l20.787-2.603 c14.544-1.82,25.512-14.247,25.512-28.905v-50.417C512,270.074,501.033,257.647,486.489,255.827z M416.648,189.917 c-7.46-6.102-15.45-11.508-23.854-16.15c5.525-15.875,19.001-27.687,35.072-31.375L416.648,189.917z"/> </g> </g><g> <g> <path d="M398.07,253.93c-1.859-1.86-4.439-2.93-7.069-2.93s-5.21,1.07-7.07,2.93c-1.86,1.86-2.93,4.44-2.93,7.07 s1.069,5.21,2.93,7.07c1.861,1.86,4.44,2.93,7.07,2.93s5.21-1.07,7.069-2.93c1.86-1.86,2.931-4.44,2.931-7.07 S399.93,255.79,398.07,253.93z"/> </g> </g><g> <g> <path d="M293.242,58.333c-5.522,0-10,4.477-10,10v39.665c0,5.523,4.478,10,10,10c5.522,0,10-4.477,10-10V68.333 C303.242,62.811,298.765,58.333,293.242,58.333z"/> </g> </g><g> <g> <path d="M300.31,24.98c-1.859-1.86-4.439-2.93-7.069-2.93c-2.631,0-5.21,1.07-7.07,2.93c-1.86,1.86-2.93,4.44-2.93,7.07 c0,2.64,1.069,5.21,2.93,7.07c1.86,1.86,4.439,2.93,7.07,2.93c2.63,0,5.21-1.07,7.069-2.93c1.86-1.86,2.931-4.44,2.931-7.07 S302.17,26.85,300.31,24.98z"/> </g> </g><g> <g> <path d="M212,0c-5.522,0-10,4.477-10,10v17c0,5.523,4.478,10,10,10c5.522,0,10-4.477,10-10V10C222,4.477,217.523,0,212,0z"/> </g> </g><g> <g> <path d="M113.938,312.969c0-5.523-4.478-10-10-10c-5.522,0-10,4.477-10,10l0.001,0.531c0.034,5.501,4.505,9.938,9.999,9.938 c0.02,0,0.041,0,0.063,0c5.522-0.035,9.972-4.54,9.938-10.063L113.938,312.969z"/> </g> </g><g> <g> <path d="M158.203,391.651c-17.383-10.579-30.952-26.832-38.206-45.765c-1.977-5.159-7.76-7.738-12.916-5.76 c-5.157,1.976-7.736,7.758-5.76,12.916c8.83,23.047,25.339,42.826,46.486,55.694c1.624,0.988,3.417,1.459,5.188,1.459 c3.375,0,6.67-1.709,8.553-4.803C164.419,400.674,162.92,394.522,158.203,391.651z"/> </g> </g><g> <g> <path d="M212,48.052c-23.159,0-42,18.841-42,42s18.841,42,42,42s42-18.841,42-42S235.159,48.052,212,48.052z M212,112.052 c-12.131,0-22-9.869-22-22s9.869-22,22-22s22,9.869,22,22S224.131,112.052,212,112.052z"/> </g> </g><g> <g> <path d="M338,212h-9c3.954-6.403,6.242-13.938,6.242-22c0-23.159-18.841-42-42-42s-42,18.841-42,42 c-0.001,8.062,2.287,15.597,6.241,22H208c-5.522,0-10,4.477-10,10s4.478,10,10,10h130c5.522,0,10-4.477,10-10S343.523,212,338,212 z M293.242,212c-12.131,0-22-9.869-22-22s9.869-22,22-22c12.131,0,22,9.869,22,22S305.372,212,293.242,212z"/> </g> </g></symbol><symbol id="survey" viewBox="-51 0 512 512"><title>survey</title><path d="m401.5 124.066406c4.144531 0 7.5-3.359375 7.5-7.5v-71.066406c0-14.335938-11.664062-26-26-26h-98.074219c-2.078125-11.085938-11.828125-19.5-23.507812-19.5h-113.835938c-11.679687 0-21.429687 8.414062-23.507812 19.5h-98.074219c-14.335938 0-26 11.664062-26 26v440.5c0 14.335938 11.664062 26 26 26h357c14.335938 0 26-11.664062 26-26v-341.433594c0-4.144531-3.355469-7.5-7.5-7.5s-7.5 3.355469-7.5 7.5v341.433594c0 6.066406-4.933594 11-11 11h-357c-6.066406 0-11-4.933594-11-11v-440.5c0-6.066406 4.933594-11 11-11h97.667969c.5625 7.449219-1.867188 15.214844 4.132812 24.023438h-81.300781c-4.144531 0-7.5 3.359374-7.5 7.5v194.726562c0 4.140625 3.355469 7.5 7.5 7.5s7.5-3.359375 7.5-7.5v-187.226562h112.683594c3.101562 22.480468 24.796875 37.003906 46.433594 31.996093 15.289062-3.542969 27.007812-16.109375 29.199218-31.996093h112.683594v384.453124h-301v-169.226562c0-4.140625-3.355469-7.5-7.5-7.5s-7.5 3.359375-7.5 7.5v176.726562c0 4.140626 3.355469 7.5 7.5 7.5h316c4.144531 0 7.5-3.359374 7.5-7.5v-399.453124c0-4.140626-3.355469-7.5-7.5-7.5h-81.300781c5.984375-8.789063 3.578125-16.667969 4.132812-24.023438h97.667969c6.066406 0 11 4.933594 11 11v71.066406c0 4.140625 3.355469 7.5 7.5 7.5zm-220.167969-55.734375v-6.820312c0-4.140625-3.355469-7.5-7.5-7.5h-26.25c-4.914062 0-8.914062-4-8.914062-8.914063v-21.183594c0-4.914062 4-8.914062 8.914062-8.914062h113.835938c4.914062 0 8.914062 4 8.914062 8.914062v21.183594c0 4.914063-4 8.914063-8.914062 8.914063h-26.25c-4.144531 0-7.5 3.359375-7.5 7.5v6.820312c0 12.773438-10.394531 23.167969-23.167969 23.167969s-23.167969-10.394531-23.167969-23.167969zm0 0"/><path d="m105.953125 200.261719h33.761719c11.976562 0 21.71875-9.742188 21.71875-21.714844v-33.765625c0-11.972656-9.742188-21.714844-21.71875-21.714844h-33.761719c-11.976563 0-21.71875 9.742188-21.71875 21.714844v33.765625c0 11.972656 9.742187 21.714844 21.71875 21.714844zm-6.71875-55.480469c0-3.703125 3.011719-6.714844 6.71875-6.714844h33.761719c3.703125 0 6.71875 3.011719 6.71875 6.714844v33.765625c0 3.703125-3.015625 6.714844-6.71875 6.714844h-33.761719c-3.707031 0-6.71875-3.011719-6.71875-6.714844zm0 0"/><path d="m187.265625 169.164062h130c4.140625 0 7.5-3.359374 7.5-7.5 0-4.140624-3.359375-7.5-7.5-7.5h-130c-4.144531 0-7.5 3.359376-7.5 7.5 0 4.140626 3.355469 7.5 7.5 7.5zm0 0"/><path d="m84.234375 282.632812c0 11.972657 9.742187 21.714844 21.71875 21.714844h33.761719c11.976562 0 21.71875-9.742187 21.71875-21.714844v-33.765624c0-11.972657-9.742188-21.714844-21.71875-21.714844h-33.761719c-11.976563 0-21.71875 9.742187-21.71875 21.714844zm15-33.765624c0-3.703126 3.011719-6.714844 6.71875-6.714844h33.761719c3.703125 0 6.71875 3.011718 6.71875 6.714844v33.765624c0 3.703126-3.015625 6.714844-6.71875 6.714844h-33.761719c-3.707031 0-6.71875-3.011718-6.71875-6.714844zm0 0"/><path d="m187.265625 273.25h130c4.140625 0 7.5-3.359375 7.5-7.5s-3.359375-7.5-7.5-7.5h-130c-4.144531 0-7.5 3.359375-7.5 7.5s3.355469 7.5 7.5 7.5zm0 0"/><path d="m84.234375 386.71875c0 11.972656 9.742187 21.714844 21.71875 21.714844h33.761719c11.976562 0 21.71875-9.742188 21.71875-21.714844v-33.765625c0-11.972656-9.742188-21.714844-21.71875-21.714844h-33.761719c-11.976563 0-21.71875 9.742188-21.71875 21.714844zm15-33.765625c0-3.703125 3.011719-6.714844 6.71875-6.714844h33.761719c3.703125 0 6.71875 3.011719 6.71875 6.714844v33.765625c0 3.703125-3.015625 6.714844-6.71875 6.714844h-33.761719c-3.707031 0-6.71875-3.011719-6.71875-6.714844zm0 0"/><path d="m187.265625 377.335938h130c4.140625 0 7.5-3.359376 7.5-7.5 0-4.140626-3.359375-7.5-7.5-7.5h-130c-4.144531 0-7.5 3.359374-7.5 7.5 0 4.140624 3.355469 7.5 7.5 7.5zm0 0"/></symbol><symbol id="wifi-signal" viewBox="0 0 493.746 493.746"><title>wifi-signal</title><path id="XMLID_362_" d="M212.524,356.921c-18.966,18.968-18.966,49.737,0,68.706c18.976,18.965,49.74,18.965,68.715,0 c18.965-18.969,18.965-49.738,0-68.706C262.264,337.952,231.5,337.952,212.524,356.921z"/><path id="XMLID_361_" d="M246.882,241.383c-40.027,0-77.683,15.591-105.971,43.907c-11.113,11.108-11.113,29.112,0,40.213 c11.104,11.108,29.1,11.108,40.213,0c17.546-17.571,40.907-27.244,65.758-27.244s48.213,9.673,65.759,27.244 c5.561,5.554,12.855,8.33,20.111,8.33c7.294,0,14.55-2.776,20.102-8.33c11.113-11.101,11.113-29.104,0-40.213 C324.565,256.974,286.909,241.383,246.882,241.383z"/><path id="XMLID_360_" d="M246.882,147.743c-65.053,0-126.209,25.335-172.199,71.331c-11.104,11.108-11.104,29.114,0,40.213 c11.112,11.108,29.118,11.108,40.212,0c35.248-35.258,82.129-54.672,131.986-54.672c49.837,0,96.718,19.414,131.967,54.672 c5.551,5.555,12.846,8.332,20.102,8.332c7.294,0,14.56-2.777,20.111-8.332c11.104-11.099,11.104-29.105,0-40.213 C373.071,173.078,311.935,147.743,246.882,147.743z"/><path id="XMLID_359_" d="M485.436,152.721c-63.711-63.733-148.425-98.825-238.554-98.825S72.039,88.988,8.328,152.721 c-11.104,11.109-11.104,29.115,0,40.214c5.561,5.554,12.836,8.329,20.111,8.329c7.275,0,14.57-2.775,20.102-8.329 c52.97-52.989,123.419-82.166,198.341-82.166c74.923,0,145.351,29.177,198.323,82.166c11.102,11.108,29.098,11.098,40.213,0.01 C496.52,181.836,496.52,163.83,485.436,152.721z"/></symbol><symbol id="maps-and-location" viewBox="-43 -20 662 662.66464"><title>maps-and-location</title><path d="m376.808594 445.527344h-.613282c-20.421874-.109375-37.074218 16.34375-37.214843 36.761718-.085938 9.78125 3.738281 19.1875 10.628906 26.125 6.886719 6.9375 16.265625 10.828126 26.042969 10.808594h.484375c.117187 0 .226562.199219.34375.199219 20.265625.085937 36.800781-16.210937 37-36.472656 0-.214844 0-.398438 0-.609375.042969-9.753906-3.800781-19.121094-10.679688-26.03125-6.886719-6.914063-16.238281-10.792969-25.992187-10.78125zm11.699218 37.203125c-.011718 3.136719-1.320312 6.128906-3.609374 8.269531-2.269532 2.152344-5.296876 3.316406-8.421876 3.238281h-.605468c-6.644532.148438-12.164063-5.097656-12.34375-11.742187v-.089844c0-6.761719 5.972656-11.898438 12.796875-11.898438h.265625c3.148437-.058593 6.1875 1.152344 8.429687 3.363282 2.246094 2.207031 3.5 5.230468 3.488281 8.375zm0 0"/><path d="m329.738281 411.925781c-4.886719 4.867188-4.902343 12.777344-.03125 17.664063 4.863281 4.886718 12.773438 4.90625 17.660157.035156 17.609374-17.464844 46.007812-17.464844 63.609374 0 4.890626 4.871094 12.796876 4.851562 17.667969-.035156 4.871094-4.886719 4.851563-12.796875-.035156-17.664063-27.367187-27.144531-71.503906-27.144531-98.871094 0zm0 0"/><path d="m303.230469 367.929688c-3.175781 3.152343-4.425781 7.761718-3.273438 12.085937 1.152344 4.328125 4.527344 7.703125 8.855469 8.855469 4.324219 1.152344 8.933594-.097656 12.085938-3.273438 32.203124-32.207031 85.046874-32.175781 117.800781.066406 3.171875 3.183594 7.808593 4.417969 12.140625 3.234376 4.332031-1.179688 7.699218-4.601563 8.8125-8.953126 1.113281-4.351562-.195313-8.960937-3.425782-12.085937-42.488281-41.828125-111.125-41.796875-152.996093.070313zm0 0"/><path d="m504.671875 279.851562v-267.359374c-.054687-4.261719-2.25-8.203126-5.835937-10.496094-3.585938-2.292969-8.089844-2.625-11.972657-.882813l-115.148437 52.082031-115.128906-52.082031c-3.273438-1.484375-7.027344-1.484375-10.304688 0l-115.121094 52.082031-115.121094-52.082031c-3.796874-1.753906-8.226562-1.414062-11.722656.882813-3.511718 2.320312-5.59375 6.285156-5.511718 10.496094v373.675781c-.082032 4.867187 2.71875 9.332031 7.136718 11.378906l120.167969 54.414063c3.246094 1.484374 6.976563 1.484374 10.222656 0l50.960938-23.066407c.484375 106.148438 86.972656 192.355469 193.230469 192.355469 106.554687 0 193.351562-86.683594 193.351562-193.25.109375-57.214844-25.257812-111.511719-69.203125-148.148438zm-24.980469-17.773437c-28.804687-17.042969-61.476562-26.425781-94.929687-27.269531v-159.839844l94.929687-43.117188zm-290.597656 138.515625-45.398438 20.628906v-346.253906l94.925782-43.117188v264.785157c-26.761719 28.769531-44.046875 65.058593-49.527344 103.964843zm74.511719-368.742188 96.175781 43.117188v160.976562c-34.914062 3.761719-68.152344 16.914063-96.175781 38.066407zm-239.820313 0 94.929688 43.117188v346.253906l-94.929688-43.117187zm356.738282 564.421876c-92.78125 0-168.265626-75.488282-168.265626-168.269532s75.484376-168.265625 168.265626-168.265625 168.265624 75.484375 168.265624 168.265625-75.484374 168.269532-168.265624 168.269532zm0 0"/></symbol><symbol id="facebook" viewBox="0 0 112.196 112.196"><title>facebook</title><circle style="fill:#3B5998;" cx="56.098" cy="56.098" r="56.098"/><path style="fill:#FFFFFF;" d="M70.201,58.294h-10.01v36.672H45.025V58.294h-7.213V45.406h7.213v-8.34 c0-5.964,2.833-15.303,15.301-15.303L71.56,21.81v12.51h-8.151c-1.337,0-3.217,0.668-3.217,3.513v7.585h11.334L70.201,58.294z"/></symbol><symbol id="telephone" viewBox="0 0 482.6 482.6"><title>telephone</title><path d="M98.339,320.8c47.6,56.9,104.9,101.7,170.3,133.4c24.9,11.8,58.2,25.8,95.3,28.2c2.3,0.1,4.5,0.2,6.8,0.2 c24.9,0,44.9-8.6,61.2-26.3c0.1-0.1,0.3-0.3,0.4-0.5c5.8-7,12.4-13.3,19.3-20c4.7-4.5,9.5-9.2,14.1-14 c21.3-22.2,21.3-50.4-0.2-71.9l-60.1-60.1c-10.2-10.6-22.4-16.2-35.2-16.2c-12.8,0-25.1,5.6-35.6,16.1l-35.8,35.8 c-3.3-1.9-6.7-3.6-9.9-5.2c-4-2-7.7-3.9-11-6c-32.6-20.7-62.2-47.7-90.5-82.4c-14.3-18.1-23.9-33.3-30.6-48.8 c9.4-8.5,18.2-17.4,26.7-26.1c3-3.1,6.1-6.2,9.2-9.3c10.8-10.8,16.6-23.3,16.6-36s-5.7-25.2-16.6-36l-29.8-29.8 c-3.5-3.5-6.8-6.9-10.2-10.4c-6.6-6.8-13.5-13.8-20.3-20.1c-10.3-10.1-22.4-15.4-35.2-15.4c-12.7,0-24.9,5.3-35.6,15.5l-37.4,37.4 c-13.6,13.6-21.3,30.1-22.9,49.2c-1.9,23.9,2.5,49.3,13.9,80C32.739,229.6,59.139,273.7,98.339,320.8z M25.739,104.2 c1.2-13.3,6.3-24.4,15.9-34l37.2-37.2c5.8-5.6,12.2-8.5,18.4-8.5c6.1,0,12.3,2.9,18,8.7c6.7,6.2,13,12.7,19.8,19.6 c3.4,3.5,6.9,7,10.4,10.6l29.8,29.8c6.2,6.2,9.4,12.5,9.4,18.7s-3.2,12.5-9.4,18.7c-3.1,3.1-6.2,6.3-9.3,9.4 c-9.3,9.4-18,18.3-27.6,26.8c-0.2,0.2-0.3,0.3-0.5,0.5c-8.3,8.3-7,16.2-5,22.2c0.1,0.3,0.2,0.5,0.3,0.8 c7.7,18.5,18.4,36.1,35.1,57.1c30,37,61.6,65.7,96.4,87.8c4.3,2.8,8.9,5,13.2,7.2c4,2,7.7,3.9,11,6c0.4,0.2,0.7,0.4,1.1,0.6 c3.3,1.7,6.5,2.5,9.7,2.5c8,0,13.2-5.1,14.9-6.8l37.4-37.4c5.8-5.8,12.1-8.9,18.3-8.9c7.6,0,13.8,4.7,17.7,8.9l60.3,60.2 c12,12,11.9,25-0.3,37.7c-4.2,4.5-8.6,8.8-13.3,13.3c-7,6.8-14.3,13.8-20.9,21.7c-11.5,12.4-25.2,18.2-42.9,18.2 c-1.7,0-3.5-0.1-5.2-0.2c-32.8-2.1-63.3-14.9-86.2-25.8c-62.2-30.1-116.8-72.8-162.1-127c-37.3-44.9-62.4-86.7-79-131.5 C28.039,146.4,24.139,124.3,25.739,104.2z"/></symbol><symbol id="mail" viewBox="0 0 512 512"><title>mail</title><g> <g> <path d="M495.102,112.37H144.194c-9.333,0-16.898,7.565-16.898,16.898v253.465c0,9.333,7.565,16.898,16.898,16.898h350.909 c9.339,0,16.898-7.564,16.898-16.898V129.267C512,119.934,504.435,112.37,495.102,112.37z M449.005,146.165L315.17,259.509 L188.437,146.165H449.005z M478.205,365.835H161.091V167.051l142.509,127.454c6.28,5.621,15.754,5.745,22.181,0.299 l152.423-129.081V365.835z"/> </g> </g><g> <g> <path d="M95.754,239.102H66.464c-9.333,0-16.898,7.565-16.898,16.898c0,9.333,7.565,16.898,16.898,16.898h29.289 c9.333,0,16.898-7.565,16.898-16.898C112.651,246.667,105.087,239.102,95.754,239.102z"/> </g> </g><g> <g> <path d="M95.754,307.82H16.898C7.565,307.82,0,315.384,0,324.717c0,9.333,7.565,16.898,16.898,16.898h78.856 c9.333,0,16.898-7.565,16.898-16.898C112.651,315.384,105.087,307.82,95.754,307.82z"/> </g> </g><g> <g> <path d="M95.754,170.385H16.898C7.565,170.385,0,177.95,0,187.283c0,9.333,7.565,16.898,16.898,16.898h78.856 c9.333,0,16.898-7.565,16.898-16.898S105.087,170.385,95.754,170.385z"/> </g> </g></symbol><symbol id="pin" viewBox="0 0 512 512"><title>pin</title><g> <g> <path d="M256,0C156.748,0,76,80.748,76,180c0,33.534,9.289,66.26,26.869,94.652l142.885,230.257 c2.737,4.411,7.559,7.091,12.745,7.091c0.04,0,0.079,0,0.119,0c5.231-0.041,10.063-2.804,12.75-7.292L410.611,272.22 C427.221,244.428,436,212.539,436,180C436,80.748,355.252,0,256,0z M384.866,256.818L258.272,468.186l-129.905-209.34 C113.734,235.214,105.8,207.95,105.8,180c0-82.71,67.49-150.2,150.2-150.2S406.1,97.29,406.1,180 C406.1,207.121,398.689,233.688,384.866,256.818z"/> </g> </g><g> <g> <path d="M256,90c-49.626,0-90,40.374-90,90c0,49.309,39.717,90,90,90c50.903,0,90-41.233,90-90C346,130.374,305.626,90,256,90z M256,240.2c-33.257,0-60.2-27.033-60.2-60.2c0-33.084,27.116-60.2,60.2-60.2s60.1,27.116,60.1,60.2 C316.1,212.683,289.784,240.2,256,240.2z"/> </g> </g></symbol><symbol id="casino-cctv" viewBox="0 0 512 512"><title>casino-cctv</title><path d="M511.985,211.399c-0.204-4.679-2.811-13.353-17.976-18.872L89.696,45.514c-20.725-7.541-43.725,3.181-51.269,23.907 L27.482,99.49c0,0-0.001,0.003-0.002,0.005L2.857,167.148c-7.543,20.727,3.181,43.725,23.91,51.27l117.836,42.839 c-2.239,13.62,1.496,27.077,9.626,37.372l-25.102,68.963c-1.155,3.174-4.203,5.307-7.584,5.307H48v-24c0-13.233-10.766-24-24-24H8 c-4.418,0-8,3.582-8,8v128c0,4.418,3.582,8,8,8h16c13.234,0,24-10.767,24-24v-24h73.543c23.488,0,44.662-14.828,52.689-36.896 l24.574-67.514c14.063-1.974,26.843-10.185,34.429-23.009l137.703,50.062c4.501,1.638,9.107,2.415,13.641,2.415 c13.751-0.001,26.817-7.149,34.134-19.08l15.802,5.751c1.785,0.649,3.635,0.973,5.48,0.973c2.303,0,4.598-0.504,6.747-1.506 c3.871-1.805,6.807-5.01,8.267-9.022l21.897-60.162c2.663-7.317-0.376-15.336-6.829-19.188l25.646-11.958 C510.349,224.945,512.189,216.078,511.985,211.399z M32,444.899c0,4.411-3.589,8-8,8h-8v-112h8c4.411,0,8,3.589,8,8V444.899z M159.197,378.532c-5.737,15.771-20.869,26.367-37.654,26.367H48v-16h73.543c10.082,0,19.171-6.363,22.619-15.834l22.965-63.094 c2.635,1.583,5.458,2.942,8.456,4.033c2.128,0.775,4.275,1.388,6.426,1.853L159.197,378.532z M193.104,300.917 c-0.185-0.001-0.369-0.001-0.553,0.01c-3.81,0.051-7.697-0.575-11.496-1.958c-4.447-1.619-8.325-4.11-11.502-7.213 c-0.291-0.354-0.614-0.682-0.967-0.983c-5.958-6.346-9.148-14.961-8.544-23.903l57.758,20.998 C211.956,295.894,202.808,300.618,193.104,300.917z M461.873,257.439l-21.883,60.155l-15.046-5.476l20.756-57.027l4.249-1.981 L461.873,257.439z M488.963,217.264l-42.767,19.942c-0.005,0.002-0.009,0.004-0.013,0.006l-10.242,4.776 c-0.004,0.002-0.007,0.003-0.011,0.005l-12.008,5.599c-14.092,6.571-38.343,7.629-52.958,2.31l-231.409-84.081 c-4.151-1.507-8.742,0.635-10.251,4.787c-1.509,4.153,0.634,8.742,4.787,10.252l231.405,84.079 c8.052,2.931,17.977,4.358,28.105,4.358c11.073,0,22.379-1.715,31.736-5.036l-18.162,49.901 c-4.526,12.436-18.326,18.87-30.764,14.343L32.236,203.382c-12.436-4.526-18.87-18.325-14.344-30.761l13.688-37.608 c4.565,7.018,11.354,12.669,19.81,15.747l7.52,2.736c4.148,1.512,8.742-0.63,10.253-4.782c1.511-4.151-0.63-8.742-4.782-10.253 l-7.519-2.736c-12.434-4.526-18.869-18.322-14.346-30.757l2.738-7.523c0,0,0.001-0.002,0.001-0.003l8.207-22.549 c4.527-12.436,18.326-18.873,30.764-14.344l404.313,147.014c5.136,1.869,7.036,3.817,7.422,4.535 C495.639,212.848,493.917,214.953,488.963,217.264z"/><path d="M109.485,154.878l-15.037-5.474c-4.151-1.513-8.742,0.63-10.254,4.781c-1.511,4.151,0.629,8.742,4.781,10.254l15.037,5.474 c0.903,0.329,1.827,0.484,2.736,0.484c3.268,0,6.335-2.018,7.518-5.266C115.778,160.981,113.637,156.39,109.485,154.878z"/></symbol><symbol id="settings" viewBox="0 0 478.703 478.703"><title>settings</title><path d="M454.2,189.101l-33.6-5.7c-3.5-11.3-8-22.2-13.5-32.6l19.8-27.7c8.4-11.8,7.1-27.9-3.2-38.1l-29.8-29.8 c-5.6-5.6-13-8.7-20.9-8.7c-6.2,0-12.1,1.9-17.1,5.5l-27.8,19.8c-10.8-5.7-22.1-10.4-33.8-13.9l-5.6-33.2 c-2.4-14.3-14.7-24.7-29.2-24.7h-42.1c-14.5,0-26.8,10.4-29.2,24.7l-5.8,34c-11.2,3.5-22.1,8.1-32.5,13.7l-27.5-19.8 c-5-3.6-11-5.5-17.2-5.5c-7.9,0-15.4,3.1-20.9,8.7l-29.9,29.8c-10.2,10.2-11.6,26.3-3.2,38.1l20,28.1 c-5.5,10.5-9.9,21.4-13.3,32.7l-33.2,5.6c-14.3,2.4-24.7,14.7-24.7,29.2v42.1c0,14.5,10.4,26.8,24.7,29.2l34,5.8 c3.5,11.2,8.1,22.1,13.7,32.5l-19.7,27.4c-8.4,11.8-7.1,27.9,3.2,38.1l29.8,29.8c5.6,5.6,13,8.7,20.9,8.7c6.2,0,12.1-1.9,17.1-5.5 l28.1-20c10.1,5.3,20.7,9.6,31.6,13l5.6,33.6c2.4,14.3,14.7,24.7,29.2,24.7h42.2c14.5,0,26.8-10.4,29.2-24.7l5.7-33.6 c11.3-3.5,22.2-8,32.6-13.5l27.7,19.8c5,3.6,11,5.5,17.2,5.5l0,0c7.9,0,15.3-3.1,20.9-8.7l29.8-29.8c10.2-10.2,11.6-26.3,3.2-38.1 l-19.8-27.8c5.5-10.5,10.1-21.4,13.5-32.6l33.6-5.6c14.3-2.4,24.7-14.7,24.7-29.2v-42.1 C478.9,203.801,468.5,191.501,454.2,189.101z M451.9,260.401c0,1.3-0.9,2.4-2.2,2.6l-42,7c-5.3,0.9-9.5,4.8-10.8,9.9 c-3.8,14.7-9.6,28.8-17.4,41.9c-2.7,4.6-2.5,10.3,0.6,14.7l24.7,34.8c0.7,1,0.6,2.5-0.3,3.4l-29.8,29.8c-0.7,0.7-1.4,0.8-1.9,0.8 c-0.6,0-1.1-0.2-1.5-0.5l-34.7-24.7c-4.3-3.1-10.1-3.3-14.7-0.6c-13.1,7.8-27.2,13.6-41.9,17.4c-5.2,1.3-9.1,5.6-9.9,10.8l-7.1,42 c-0.2,1.3-1.3,2.2-2.6,2.2h-42.1c-1.3,0-2.4-0.9-2.6-2.2l-7-42c-0.9-5.3-4.8-9.5-9.9-10.8c-14.3-3.7-28.1-9.4-41-16.8 c-2.1-1.2-4.5-1.8-6.8-1.8c-2.7,0-5.5,0.8-7.8,2.5l-35,24.9c-0.5,0.3-1,0.5-1.5,0.5c-0.4,0-1.2-0.1-1.9-0.8l-29.8-29.8 c-0.9-0.9-1-2.3-0.3-3.4l24.6-34.5c3.1-4.4,3.3-10.2,0.6-14.8c-7.8-13-13.8-27.1-17.6-41.8c-1.4-5.1-5.6-9-10.8-9.9l-42.3-7.2 c-1.3-0.2-2.2-1.3-2.2-2.6v-42.1c0-1.3,0.9-2.4,2.2-2.6l41.7-7c5.3-0.9,9.6-4.8,10.9-10c3.7-14.7,9.4-28.9,17.1-42 c2.7-4.6,2.4-10.3-0.7-14.6l-24.9-35c-0.7-1-0.6-2.5,0.3-3.4l29.8-29.8c0.7-0.7,1.4-0.8,1.9-0.8c0.6,0,1.1,0.2,1.5,0.5l34.5,24.6 c4.4,3.1,10.2,3.3,14.8,0.6c13-7.8,27.1-13.8,41.8-17.6c5.1-1.4,9-5.6,9.9-10.8l7.2-42.3c0.2-1.3,1.3-2.2,2.6-2.2h42.1 c1.3,0,2.4,0.9,2.6,2.2l7,41.7c0.9,5.3,4.8,9.6,10,10.9c15.1,3.8,29.5,9.7,42.9,17.6c4.6,2.7,10.3,2.5,14.7-0.6l34.5-24.8 c0.5-0.3,1-0.5,1.5-0.5c0.4,0,1.2,0.1,1.9,0.8l29.8,29.8c0.9,0.9,1,2.3,0.3,3.4l-24.7,34.7c-3.1,4.3-3.3,10.1-0.6,14.7 c7.8,13.1,13.6,27.2,17.4,41.9c1.3,5.2,5.6,9.1,10.8,9.9l42,7.1c1.3,0.2,2.2,1.3,2.2,2.6v42.1H451.9z"/><path d="M239.4,136.001c-57,0-103.3,46.3-103.3,103.3s46.3,103.3,103.3,103.3s103.3-46.3,103.3-103.3S296.4,136.001,239.4,136.001 z M239.4,315.601c-42.1,0-76.3-34.2-76.3-76.3s34.2-76.3,76.3-76.3s76.3,34.2,76.3,76.3S281.5,315.601,239.4,315.601z"/></symbol><symbol id="cloud-network" viewBox="0 0 64 64"><title>cloud-network</title><path d="M61,56H60V47a3,3,0,0,0-3-3H43a3,3,0,0,0-3,3v3H34.816A3,3,0,0,0,33,48.184V42s17.73-.021,18.089-.054A11.994,11.994,0,0,0,55,19.1c0-.032,0-.063,0-.095a7.014,7.014,0,0,0-8.78-6.774,15,15,0,0,0-28.44,0A7.014,7.014,0,0,0,9,19c0,.032,0,.063,0,.095A12,12,0,0,0,14,42H31v6.184A3,3,0,0,0,29.184,50H24V47a3,3,0,0,0-3-3H7a3,3,0,0,0-3,3v9H3a1,1,0,0,0-1,1v2a3,3,0,0,0,3,3H23a3,3,0,0,0,3-3V57a1,1,0,0,0-1-1H24V52h5.184a2.982,2.982,0,0,0,5.632,0H40v4H39a1,1,0,0,0-1,1v2a3,3,0,0,0,3,3H59a3,3,0,0,0,3-3V57A1,1,0,0,0,61,56ZM14,40a10,10,0,0,1-3.6-19.325,1,1,0,0,0,.637-1.058A5.21,5.21,0,0,1,11,19a5.006,5.006,0,0,1,5-5,4.8,4.8,0,0,1,2.022.429,1,1,0,0,0,1.387-.661,13,13,0,0,1,25.182,0,1,1,0,0,0,1.387.661A4.8,4.8,0,0,1,48,14a5.006,5.006,0,0,1,5,5,5.21,5.21,0,0,1-.042.617,1,1,0,0,0,.637,1.058A9.993,9.993,0,0,1,50.91,39.954C50.61,39.981,33,40,33,40V36h8a3,3,0,0,0,3-3V31a1,1,0,0,0-1-1H42V21a3,3,0,0,0-3-3H25a3,3,0,0,0-3,3v9H21a1,1,0,0,0-1,1v2a3,3,0,0,0,3,3h8v4ZM40,30H24V21a1,1,0,0,1,1-1H39a1,1,0,0,1,1,1Zm2,2v1a1,1,0,0,1-1,1H23a1,1,0,0,1-1-1V32ZM24,59a1,1,0,0,1-1,1H5a1,1,0,0,1-1-1V58H24ZM6,56V47a1,1,0,0,1,1-1H21a1,1,0,0,1,1,1v9Zm26-4a1,1,0,1,1,1-1A1,1,0,0,1,32,52Zm10-5a1,1,0,0,1,1-1H57a1,1,0,0,1,1,1v9H42ZM60,59a1,1,0,0,1-1,1H41a1,1,0,0,1-1-1V58H60Z"/><path d="M56,47H44a1,1,0,0,0-1,1v6a1,1,0,0,0,1,1H56a1,1,0,0,0,1-1V48A1,1,0,0,0,56,47Zm-1,6H45V49H55Z"/><path d="M38,21H26a1,1,0,0,0-1,1v6a1,1,0,0,0,1,1H38a1,1,0,0,0,1-1V22A1,1,0,0,0,38,21Zm-1,6H27V23H37Z"/><path d="M20,47H8a1,1,0,0,0-1,1v6a1,1,0,0,0,1,1H20a1,1,0,0,0,1-1V48A1,1,0,0,0,20,47Zm-1,6H9V49H19Z"/></symbol><symbol id="optimizing" viewBox="0 0 64 64"><title>optimizing</title><path d="M57,2H31a5.006,5.006,0,0,0-5,5v7.426a10.988,10.988,0,0,0,0,21.148V44H23.133l.578-4.628A3,3,0,0,0,20.734,36H19a1,1,0,0,0-.994.889l-.228,2.044A6.806,6.806,0,0,1,12,44.92V44a1,1,0,0,0-1-1H3a1,1,0,0,0-1,1V61a1,1,0,0,0,1,1h8a1,1,0,0,0,1-1v-.287A12.962,12.962,0,0,0,17.633,62H27a2.942,2.942,0,0,0,1.726-.555A4.908,4.908,0,0,0,31,62H57a5.006,5.006,0,0,0,5-5V7A5.006,5.006,0,0,0,57,2ZM20,25a9,9,0,1,1,9,9A9.01,9.01,0,0,1,20,25ZM31.806,50a2.97,2.97,0,0,0-.192-.47,2.763,2.763,0,0,0,.493-.4,2.959,2.959,0,0,0,.881-2.387A2.921,2.921,0,0,0,32,44.8V35.574a10.988,10.988,0,0,0,0-21.148V10H56V50ZM28,35.949c.33.03.662.051,1,.051s.67-.021,1-.051V44.01c-.038,0-.074-.01-.112-.01H28ZM10,60H4V45h6V60Zm17,0H17.633A10.955,10.955,0,0,1,12,58.452V46.944a8.81,8.81,0,0,0,7.766-7.79L19.9,38h.839a1,1,0,0,1,.993,1.124l-.719,5.752A1,1,0,0,0,22,46h7.888A1.083,1.083,0,0,1,31,46.908a.978.978,0,0,1-.3.8A.957.957,0,0,1,30,48H29a1,1,0,0,0,0,2,1,1,0,0,1,1,1,.978.978,0,0,1-.306.712A.957.957,0,0,1,29,52H28a1,1,0,0,0,0,2,1,1,0,0,1,1,1,.978.978,0,0,1-.306.712A.957.957,0,0,1,28,56H27a1,1,0,0,0,0,2,1,1,0,0,1,1,1,.978.978,0,0,1-.306.712A.957.957,0,0,1,27,60Zm33-3a3,3,0,0,1-3,3H31a2.939,2.939,0,0,1-1.113-.226,2.89,2.89,0,0,0-.273-2.244,2.763,2.763,0,0,0,.493-.4A2.935,2.935,0,0,0,31,55a2.975,2.975,0,0,0-.386-1.47,2.763,2.763,0,0,0,.493-.4A2.906,2.906,0,0,0,31.818,52H57a1,1,0,0,0,1-1V9a1,1,0,0,0-1-1H31a1,1,0,0,0-1,1v5.051c-.33-.03-.662-.051-1-.051s-.67.021-1,.051V7a3,3,0,0,1,3-3H57a3,3,0,0,1,3,3Z"/><path d="M44,53a3,3,0,1,0,3,3A3,3,0,0,0,44,53Zm0,4a1,1,0,1,1,1-1A1,1,0,0,1,44,57Z"/><path d="M46,5H42a1,1,0,0,0,0,2h4a1,1,0,0,0,0-2Z"/><path d="M34.778,21.222a1,1,0,0,0-1.414,0L27,27.586,24.465,25.05a1,1,0,1,0-1.414,1.414l3.242,3.243a1,1,0,0,0,1.414,0l7.071-7.071A1,1,0,0,0,34.778,21.222Z"/></symbol><symbol id="like" viewBox="0 0 478.2 478.2"><title>like</title><path d="M457.575,325.1c9.8-12.5,14.5-25.9,13.9-39.7c-0.6-15.2-7.4-27.1-13-34.4c6.5-16.2,9-41.7-12.7-61.5 c-15.9-14.5-42.9-21-80.3-19.2c-26.3,1.2-48.3,6.1-49.2,6.3h-0.1c-5,0.9-10.3,2-15.7,3.2c-0.4-6.4,0.7-22.3,12.5-58.1 c14-42.6,13.2-75.2-2.6-97c-16.6-22.9-43.1-24.7-50.9-24.7c-7.5,0-14.4,3.1-19.3,8.8c-11.1,12.9-9.8,36.7-8.4,47.7 c-13.2,35.4-50.2,122.2-81.5,146.3c-0.6,0.4-1.1,0.9-1.6,1.4c-9.2,9.7-15.4,20.2-19.6,29.4c-5.9-3.2-12.6-5-19.8-5h-61 c-23,0-41.6,18.7-41.6,41.6v162.5c0,23,18.7,41.6,41.6,41.6h61c8.9,0,17.2-2.8,24-7.6l23.5,2.8c3.6,0.5,67.6,8.6,133.3,7.3 c11.9,0.9,23.1,1.4,33.5,1.4c17.9,0,33.5-1.4,46.5-4.2c30.6-6.5,51.5-19.5,62.1-38.6c8.1-14.6,8.1-29.1,6.8-38.3 c19.9-18,23.4-37.9,22.7-51.9C461.275,337.1,459.475,330.2,457.575,325.1z M48.275,447.3c-8.1,0-14.6-6.6-14.6-14.6V270.1 c0-8.1,6.6-14.6,14.6-14.6h61c8.1,0,14.6,6.6,14.6,14.6v162.5c0,8.1-6.6,14.6-14.6,14.6h-61V447.3z M431.975,313.4 c-4.2,4.4-5,11.1-1.8,16.3c0,0.1,4.1,7.1,4.6,16.7c0.7,13.1-5.6,24.7-18.8,34.6c-4.7,3.6-6.6,9.8-4.6,15.4c0,0.1,4.3,13.3-2.7,25.8 c-6.7,12-21.6,20.6-44.2,25.4c-18.1,3.9-42.7,4.6-72.9,2.2c-0.4,0-0.9,0-1.4,0c-64.3,1.4-129.3-7-130-7.1h-0.1l-10.1-1.2 c0.6-2.8,0.9-5.8,0.9-8.8V270.1c0-4.3-0.7-8.5-1.9-12.4c1.8-6.7,6.8-21.6,18.6-34.3c44.9-35.6,88.8-155.7,90.7-160.9 c0.8-2.1,1-4.4,0.6-6.7c-1.7-11.2-1.1-24.9,1.3-29c5.3,0.1,19.6,1.6,28.2,13.5c10.2,14.1,9.8,39.3-1.2,72.7 c-16.8,50.9-18.2,77.7-4.9,89.5c6.6,5.9,15.4,6.2,21.8,3.9c6.1-1.4,11.9-2.6,17.4-3.5c0.4-0.1,0.9-0.2,1.3-0.3 c30.7-6.7,85.7-10.8,104.8,6.6c16.2,14.8,4.7,34.4,3.4,36.5c-3.7,5.6-2.6,12.9,2.4,17.4c0.1,0.1,10.6,10,11.1,23.3 C444.875,295.3,440.675,304.4,431.975,313.4z"/></symbol><symbol id="flash" viewBox="0 0 512 512"><title>flash</title><path d="M400.388,175.787c-1.707-3.413-4.267-5.12-7.68-5.12H292.015L391.855,12.8c1.707-2.56,1.707-5.973,0-8.533 S387.588,0,384.175,0H247.642c-3.413,0-5.973,1.707-7.68,4.267l-128,256c-1.707,2.56-1.707,5.973,0,8.533 c1.707,2.56,5.12,4.267,7.68,4.267h87.893l-95.573,227.84c-1.707,3.413,0,7.68,3.413,10.24c0.853,0.853,2.56,0.853,4.267,0.853 c2.56,0,5.12-0.853,6.827-2.56l273.067-324.267C401.242,182.613,402.095,179.2,400.388,175.787z M149.508,454.827l78.507-187.733 c0.853-2.56,0.853-5.12-0.853-7.68c-1.707-1.707-4.267-3.413-6.827-3.413h-87.04L252.762,17.067h116.053L268.122,174.933 c-1.707,2.56-1.707,5.973,0,8.533s4.267,4.267,7.68,4.267h98.987L149.508,454.827z"/></symbol><symbol id="search" viewBox="0 0 512 512"><title>search</title><path d="M495,466.2L377.2,348.4c29.2-35.6,46.8-81.2,46.8-130.9C424,103.5,331.5,11,217.5,11C103.4,11,11,103.5,11,217.5 S103.4,424,217.5,424c49.7,0,95.2-17.5,130.8-46.7L466.1,495c8,8,20.9,8,28.9,0C503,487.1,503,474.1,495,466.2z M217.5,382.9 C126.2,382.9,52,308.7,52,217.5S126.2,52,217.5,52C308.7,52,383,126.3,383,217.5S308.7,382.9,217.5,382.9z"/></symbol><symbol id="close" viewBox="0 0 52 52"><title>close</title><path d="M26,0C11.664,0,0,11.663,0,26s11.664,26,26,26s26-11.663,26-26S40.336,0,26,0z M26,50C12.767,50,2,39.233,2,26 S12.767,2,26,2s24,10.767,24,24S39.233,50,26,50z"/><path d="M35.707,16.293c-0.391-0.391-1.023-0.391-1.414,0L26,24.586l-8.293-8.293c-0.391-0.391-1.023-0.391-1.414,0 s-0.391,1.023,0,1.414L24.586,26l-8.293,8.293c-0.391,0.391-0.391,1.023,0,1.414C16.488,35.902,16.744,36,17,36 s0.512-0.098,0.707-0.293L26,27.414l8.293,8.293C34.488,35.902,34.744,36,35,36s0.512-0.098,0.707-0.293 c0.391-0.391,0.391-1.023,0-1.414L27.414,26l8.293-8.293C36.098,17.316,36.098,16.684,35.707,16.293z"/></symbol><symbol id="sketch" viewBox="0 0 511.999 511.999"><title>sketch</title><g> <g> <path d="M453.034,361.322c-2.808-1.164-6.04-0.521-8.19,1.628l-82.126,82.126c-2.149,2.15-2.792,5.382-1.628,8.19 c1.162,2.809,3.904,4.639,6.943,4.639h82.126c4.151,0,7.515-3.364,7.515-7.515v-82.126 C457.673,365.225,455.842,362.485,453.034,361.322z M386.173,442.876l56.469-56.469v56.469H386.173z"/> </g> </g><g> <g> <path d="M507.361,240.867c-2.808-1.164-6.04-0.521-8.19,1.628l-22.507,22.507V111.971c0-4.151-3.365-7.515-7.515-7.515h-57.741 l20.96-20.96c0.003-0.003,0.006-0.007,0.009-0.01l20.196-20.196c4.327-4.327,6.71-10.083,6.71-16.203s-2.383-11.874-6.71-16.203 L429.219,7.53c-4.327-4.327-10.083-6.71-16.203-6.71s-11.875,2.383-16.203,6.71l-20.206,20.206l-24.416,24.416l-52.303,52.303 H66.62V30.11c0-4.151-3.365-7.515-7.515-7.515C26.515,22.597,0,49.11,0,81.702v319.186c0,0.555,0.064,1.095,0.178,1.615 c1.038,13.829,7.021,26.678,17.02,36.432C27.886,449.359,41.995,455.1,56.927,455.1h229.638l-43.249,43.249 c-2.149,2.15-2.792,5.381-1.629,8.19c1.163,2.808,3.904,4.639,6.943,4.639h255.855c4.15,0,7.515-3.364,7.515-7.515V247.81 C512,244.771,510.168,242.03,507.361,240.867z M407.443,18.159c3.072-3.074,8.077-3.074,11.149,0l23.355,23.355 c3.074,3.073,3.074,8.076,0,11.15l-14.891,14.892L392.55,33.051L407.443,18.159z M381.922,43.679l34.505,34.504l-13.789,13.789 l-34.503-34.504L381.922,43.679z M496.972,332.252h-13.865c-4.151,0-7.515,3.364-7.515,7.515c0,4.151,3.364,7.515,7.515,7.515 h13.865v22.646h-13.865c-4.151,0-7.515,3.364-7.515,7.515s3.364,7.515,7.515,7.515h13.865v22.645h-13.865 c-4.151,0-7.515,3.364-7.515,7.515c0,4.151,3.364,7.515,7.515,7.515h13.865v22.646h-13.865c-4.151,0-7.515,3.365-7.515,7.515 c0,4.151,3.364,7.515,7.515,7.515h13.865v35.842h-230.2l75.908-75.907c2.935-2.936,2.935-7.693,0-10.628 c-0.337-0.337-0.699-0.629-1.078-0.889c-2.926-2.004-6.952-1.709-9.551,0.889l-30.456,30.456H56.928 c-22.792,0-41.14-17.794-41.862-40.545c0.043-1.428,0.154-2.844,0.332-4.244c0.001-0.008,0.002-0.016,0.003-0.024 c0.084-0.665,0.185-1.327,0.3-1.985c0.013-0.075,0.027-0.15,0.04-0.225c0.105-0.587,0.223-1.171,0.352-1.753 c0.036-0.162,0.074-0.324,0.112-0.485c0.114-0.492,0.237-0.981,0.369-1.468c0.072-0.264,0.147-0.525,0.224-0.788 c0.11-0.382,0.224-0.763,0.345-1.14c0.121-0.377,0.25-0.75,0.381-1.123c0.091-0.261,0.181-0.522,0.279-0.781 c0.183-0.492,0.377-0.979,0.577-1.462c0.057-0.139,0.113-0.28,0.172-0.419c0.257-0.6,0.524-1.193,0.806-1.779 c0.012-0.025,0.023-0.05,0.035-0.075c5.878-12.164,17.183-21.233,30.75-24.047c0.038-0.008,0.076-0.017,0.114-0.025 c0.622-0.127,1.25-0.236,1.882-0.337c0.105-0.017,0.21-0.038,0.317-0.054c0.571-0.087,1.148-0.155,1.725-0.22 c0.162-0.018,0.323-0.043,0.486-0.059c0.557-0.056,1.119-0.093,1.681-0.128c0.178-0.011,0.356-0.03,0.534-0.039 c0.736-0.037,1.478-0.056,2.223-0.056c4.15,0,7.515-3.364,7.515-7.515v-54.489c0-4.151-3.365-7.515-7.515-7.515 c-4.15,0-7.515,3.364-7.515,7.515v47.447c-12.69,1.605-24.469,7.265-33.757,16.335c-0.977,0.954-1.903,1.946-2.805,2.954V81.702 c0-21.741,15.826-39.858,36.561-43.436v73.705v152.777v0.001c0,4.15,3.365,7.515,7.515,7.515c4.15,0,7.515-3.365,7.515-7.515 v-0.001V119.486h218.24l-41.544,41.544c-2.935,2.936-2.935,7.693,0,10.628c2.935,2.934,7.693,2.934,10.627,0l54.373-54.373 c0.002-0.002,0.003-0.004,0.005-0.005l49.185-49.185l34.503,34.505l-4.048,4.048c-0.003,0.003-0.007,0.006-0.01,0.009 l-151.528,151.53l-34.504-34.504l29.868-29.868c2.935-2.936,2.935-7.693,0-10.628c-2.935-2.934-7.693-2.934-10.627,0 l-35.183,35.182c-0.188,0.188-0.364,0.387-0.529,0.591c-0.055,0.068-0.104,0.141-0.156,0.212c-0.106,0.141-0.21,0.283-0.307,0.431 c-0.055,0.086-0.105,0.174-0.157,0.263c-0.083,0.14-0.163,0.282-0.236,0.427c-0.048,0.094-0.091,0.189-0.135,0.287 c-0.067,0.147-0.129,0.297-0.186,0.447c-0.02,0.053-0.046,0.103-0.065,0.156l-14.641,41.475l-9.982,28.279 c-0.132,0.376-0.227,0.758-0.298,1.143h-24.992c-4.15,0-7.515,3.364-7.515,7.515c0,4.151,3.365,7.515,7.515,7.515h208.114 c4.151,0,7.515-3.364,7.515-7.515c0-4.151-3.364-7.515-7.515-7.515H193.093l45.83-16.178c0.038-0.014,0.074-0.033,0.112-0.047 c0.178-0.066,0.353-0.14,0.526-0.219c0.069-0.032,0.138-0.062,0.205-0.095c0.18-0.09,0.357-0.189,0.531-0.295 c0.056-0.034,0.114-0.065,0.169-0.1c0.181-0.116,0.357-0.243,0.53-0.377c0.043-0.033,0.088-0.062,0.13-0.096 c0.209-0.168,0.414-0.349,0.608-0.543l154.644-154.643h65.255v160.546L354.137,387.53c-2.935,2.936-2.935,7.693,0,10.628 c0.183,0.183,0.374,0.355,0.571,0.516c1.378,1.123,3.061,1.685,4.743,1.685s3.366-0.562,4.743-1.685 c0.197-0.16,0.388-0.333,0.571-0.516c0.003-0.003,0,0,0.003-0.003L496.972,265.95V332.252z M222.677,265.696l-21.526,7.599 l-14.342-14.342l7.599-21.526L222.677,265.696z"/> </g> </g></symbol><symbol id="menu" viewBox="0 0 24.75 24.75"><title>menu</title><path d="M0,3.875c0-1.104,0.896-2,2-2h20.75c1.104,0,2,0.896,2,2s-0.896,2-2,2H2C0.896,5.875,0,4.979,0,3.875z M22.75,10.375H2 c-1.104,0-2,0.896-2,2c0,1.104,0.896,2,2,2h20.75c1.104,0,2-0.896,2-2C24.75,11.271,23.855,10.375,22.75,10.375z M22.75,18.875H2 c-1.104,0-2,0.896-2,2s0.896,2,2,2h20.75c1.104,0,2-0.896,2-2S23.855,18.875,22.75,18.875z"/></symbol><symbol id="quote" viewBox="0 0 95.333 95.332"><title>quote</title><path d="M30.512,43.939c-2.348-0.676-4.696-1.019-6.98-1.019c-3.527,0-6.47,0.806-8.752,1.793 c2.2-8.054,7.485-21.951,18.013-23.516c0.975-0.145,1.774-0.85,2.04-1.799l2.301-8.23c0.194-0.696,0.079-1.441-0.318-2.045 s-1.035-1.007-1.75-1.105c-0.777-0.106-1.569-0.16-2.354-0.16c-12.637,0-25.152,13.19-30.433,32.076 c-3.1,11.08-4.009,27.738,3.627,38.223c4.273,5.867,10.507,9,18.529,9.313c0.033,0.001,0.065,0.002,0.098,0.002 c9.898,0,18.675-6.666,21.345-16.209c1.595-5.705,0.874-11.688-2.032-16.851C40.971,49.307,36.236,45.586,30.512,43.939z"/><path d="M92.471,54.413c-2.875-5.106-7.61-8.827-13.334-10.474c-2.348-0.676-4.696-1.019-6.979-1.019 c-3.527,0-6.471,0.806-8.753,1.793c2.2-8.054,7.485-21.951,18.014-23.516c0.975-0.145,1.773-0.85,2.04-1.799l2.301-8.23 c0.194-0.696,0.079-1.441-0.318-2.045c-0.396-0.604-1.034-1.007-1.75-1.105c-0.776-0.106-1.568-0.16-2.354-0.16 c-12.637,0-25.152,13.19-30.434,32.076c-3.099,11.08-4.008,27.738,3.629,38.225c4.272,5.866,10.507,9,18.528,9.312 c0.033,0.001,0.065,0.002,0.099,0.002c9.897,0,18.675-6.666,21.345-16.209C96.098,65.559,95.376,59.575,92.471,54.413z"/></symbol></svg>