<svg xmlns="http://www.w3.org/2000/svg" width="136.416" height="95.491" viewBox="0 0 136.416 95.491"><path d="M135.331,28.442a99.106,99.106,0,0,0-134.246,0,3.388,3.388,0,0,0-.075,4.9l7.3,7.241a3.461,3.461,0,0,0,4.775.081,81.778,81.778,0,0,1,110.252,0,3.463,3.463,0,0,0,4.775-.081l7.3-7.241A3.39,3.39,0,0,0,135.331,28.442ZM68.208,70.458A13.642,13.642,0,1,0,81.85,84.1,13.641,13.641,0,0,0,68.208,70.458Zm43.2-17.817a65.437,65.437,0,0,0-86.4,0,3.369,3.369,0,0,0-.121,4.934l7.341,7.245a3.479,3.479,0,0,0,4.7.171,48.007,48.007,0,0,1,62.558,0,3.477,3.477,0,0,0,4.7-.171l7.341-7.245A3.369,3.369,0,0,0,111.407,52.641Z" transform="translate(0 -2.25)" fill="#fff"/></svg>