<svg xmlns="http://www.w3.org/2000/svg" width="107.99" height="94.492" viewBox="0 0 107.99 94.492"><path d="M107.99,25.873V86.617A10.127,10.127,0,0,1,97.866,96.741H10.124A10.127,10.127,0,0,1,0,86.617V25.873A10.127,10.127,0,0,1,10.124,15.749H28.685L31.279,8.81a10.11,10.11,0,0,1,9.47-6.56H67.22a10.11,10.11,0,0,1,9.47,6.56l2.615,6.939H97.866A10.127,10.127,0,0,1,107.99,25.873ZM79.305,56.245A25.31,25.31,0,1,0,54,81.555,25.33,25.33,0,0,0,79.305,56.245Zm-6.749,0A18.561,18.561,0,1,1,54,37.684,18.588,18.588,0,0,1,72.556,56.245Z" transform="translate(0 -2.25)" fill="#fff"/></svg>