<?xml version="1.0" encoding="utf-8"?>
<!-- Generator: Adobe Illustrator 24.0.1, SVG Export Plug-In . SVG Version: 6.00 Build 0)  -->
<svg version="1.1" id="Layer_1" xmlns="http://www.w3.org/2000/svg" xmlns:xlink="http://www.w3.org/1999/xlink" x="0px" y="0px"
	 viewBox="0 0 36 11.8" style="enable-background:new 0 0 36 11.8;" xml:space="preserve">
<style type="text/css">
	.st0{fill:#FFFFFF;}
</style>
<g>
	<polygon class="st0" points="6,3.1 6,4.6 6,6.3 5.5,5.7 5.5,5.7 4,3.4 3.9,3.4 3,1.9 0.7,1.9 0.7,9.6 0,9.6 1.8,11.8 3.5,9.6 
		3,9.6 3,5.5 6,9.9 8.3,9.9 8.3,1.9 6,1.9 	"/>
	<path class="st0" d="M15.5,4.6c-0.1,0-0.2-0.1-0.3-0.1c0,0,0,0-0.1,0c-0.1,0-0.1,0.1-0.2,0.1c-0.1,0-0.1,0.1,0,0.2
		c0,0.1,0,0.1,0,0.2c0,0.1,0,0.2,0,0.3c0,0,0,0,0,0c0,0.1,0,0.2,0.1,0.3l-2.6-3.8h-2.3v8h2.3V5.5l3,4.4h2.3v-8h-2.3V4.6z"/>
	<path class="st0" d="M35.7,6.1c-0.2-0.4-0.6-0.6-1-0.9c-0.5-0.2-1.2-0.5-2.3-0.7c-0.4-0.1-0.7-0.2-0.8-0.3
		c-0.1-0.1-0.2-0.2-0.2-0.3c0-0.2,0.1-0.3,0.2-0.4c0.1-0.1,0.4-0.2,0.6-0.2c0.3,0,0.6,0.1,0.8,0.2c0.2,0.2,0.3,0.4,0.4,0.8l2.3-0.1
		c-0.1-0.8-0.4-1.4-1-1.8c-0.5-0.4-1.3-0.6-2.3-0.6c-0.8,0-1.5,0.1-2,0.3C30,2.3,29.6,2.6,29.4,3c-0.2,0.4-0.4,0.8-0.4,1.2
		c0,0.6,0.2,1.1,0.7,1.5c0.5,0.4,1.2,0.7,2.3,1c0.7,0.1,1.1,0.3,1.3,0.5c0.2,0.2,0.3,0.3,0.3,0.6c0,0.2-0.1,0.4-0.3,0.6
		c-0.2,0.2-0.5,0.2-0.8,0.2c-0.5,0-0.8-0.2-1.1-0.5c-0.2-0.2-0.3-0.5-0.3-0.9l-2.3,0.1c0.1,0.8,0.4,1.5,0.9,2
		c0.5,0.5,1.5,0.8,2.8,0.8c0.8,0,1.4-0.1,1.9-0.3c0.5-0.2,0.9-0.6,1.2-1C35.9,8.3,36,7.8,36,7.3C36,6.9,35.9,6.5,35.7,6.1z"/>
	<polygon class="st0" points="24.4,2.3 25,2.3 25,6.3 22,1.9 19.7,1.9 19.7,9.9 22,9.9 22,5.5 25,9.9 27.3,9.9 27.3,2.3 27.9,2.3 
		26.2,0 	"/>
</g>
</svg>
