<?xml version="1.0" encoding="utf-8"?>
<!-- Generator: Adobe Illustrator 24.0.1, SVG Export Plug-In . SVG Version: 6.00 Build 0)  -->
<svg version="1.1" id="Layer_1" xmlns="http://www.w3.org/2000/svg" xmlns:xlink="http://www.w3.org/1999/xlink" x="0px" y="0px"
	 viewBox="0 0 338.6 136.5" style="enable-background:new 0 0 338.6 136.5;" xml:space="preserve">
<style type="text/css">
	.st0{fill:#FFFFFF;}
</style>
<path class="st0" d="M0,136.2v-19.9h2.2l8.6,15.7v-15.7h2.1v19.9h-2.2l-8.6-15.7v15.7L0,136.2L0,136.2z"/>
<path class="st0" d="M15.5,129c0-2.5,0.5-4.4,1.6-5.6s2.4-1.9,4-1.9c1.6,0,2.9,0.6,4,1.9c1.1,1.3,1.6,3.1,1.6,5.5
	c0,2.6-0.5,4.5-1.6,5.8c-1,1.3-2.4,1.9-4,1.9c-1.6,0-2.9-0.6-4-1.9C16,133.3,15.5,131.4,15.5,129z M17.6,128.9c0,1.9,0.3,3.3,1,4.2
	c0.7,0.9,1.5,1.4,2.5,1.4c0.9,0,1.8-0.5,2.4-1.4c0.7-0.9,1-2.3,1-4.2c0-1.9-0.3-3.2-1-4.2s-1.5-1.4-2.5-1.4c-1,0-1.8,0.5-2.4,1.4
	C17.9,125.7,17.6,127.1,17.6,128.9z"/>
<path class="st0" d="M29,136.2v-14.4h1.8v2.2c0.5-1,0.9-1.7,1.3-2c0.4-0.3,0.8-0.5,1.3-0.5c0.7,0,1.4,0.3,2.1,0.8l-0.7,2.3
	c-0.5-0.4-1-0.5-1.5-0.5c-0.4,0-0.8,0.1-1.2,0.4c-0.4,0.3-0.6,0.7-0.7,1.3c-0.3,0.9-0.4,1.9-0.4,3v7.6L29,136.2L29,136.2z"/>
<path class="st0" d="M41,134l0.3,2.2c-0.6,0.1-1.1,0.2-1.5,0.2c-0.7,0-1.3-0.1-1.7-0.4c-0.4-0.3-0.7-0.7-0.9-1.1
	c-0.2-0.5-0.2-1.4-0.2-2.9v-8.3h-1.5v-1.9H37v-3.6l2-1.5v5h2v1.9h-2v8.4c0,0.8,0.1,1.3,0.2,1.5c0.2,0.3,0.5,0.5,1,0.5
	C40.4,134.1,40.7,134,41,134z"/>
<path class="st0" d="M42.9,136.2v-19.9h2v7.2c0.5-0.7,1-1.2,1.6-1.5c0.6-0.3,1.2-0.5,2-0.5c1.3,0,2.3,0.4,3,1.2
	c0.7,0.8,1.1,2.3,1.1,4.4v9.2h-2V127c0-1.3-0.2-2.1-0.7-2.7c-0.4-0.5-1.1-0.8-1.8-0.8c-0.9,0-1.6,0.4-2.2,1
	c-0.6,0.7-0.9,1.9-0.9,3.7v7.9L42.9,136.2L42.9,136.2z"/>
<path class="st0" d="M63.7,131.5l2.1,0.3c-0.3,1.5-1,2.7-1.9,3.5c-0.9,0.8-2,1.2-3.4,1.2c-1.7,0-3-0.6-4.1-1.9
	c-1-1.3-1.6-3.1-1.6-5.5c0-2.5,0.5-4.4,1.6-5.7c1-1.3,2.4-2,4-2c1.5,0,2.8,0.6,3.8,1.9c1,1.3,1.5,3.2,1.5,5.6l0,0.7H57
	c0.1,1.6,0.5,2.8,1.1,3.7c0.7,0.8,1.5,1.2,2.4,1.2C62.1,134.5,63.1,133.5,63.7,131.5z M57.1,127.6h6.6c-0.1-1.3-0.4-2.2-0.8-2.8
	c-0.6-0.9-1.5-1.3-2.5-1.3c-0.9,0-1.7,0.4-2.3,1.1C57.5,125.3,57.2,126.3,57.1,127.6z"/>
<path class="st0" d="M68.3,136.2v-14.4h1.8v2.2c0.5-1,0.9-1.7,1.3-2c0.4-0.3,0.8-0.5,1.3-0.5c0.7,0,1.4,0.3,2.1,0.8l-0.7,2.3
	c-0.5-0.4-1-0.5-1.5-0.5c-0.4,0-0.8,0.1-1.2,0.4c-0.4,0.3-0.6,0.7-0.7,1.3c-0.3,0.9-0.4,1.9-0.4,3v7.6L68.3,136.2L68.3,136.2z"/>
<path class="st0" d="M75.9,136.2v-14.4h1.8v2c0.4-0.8,1-1.4,1.6-1.8c0.6-0.4,1.4-0.6,2.2-0.6c0.6,0,1.2,0.1,1.8,0.4
	c0.5,0.3,1,0.6,1.3,1c0.3,0.4,0.6,0.9,0.7,1.6c0.2,0.6,0.2,1.6,0.2,3v8.9h-2v-8.8c0-1.1-0.1-1.8-0.3-2.3c-0.2-0.5-0.5-0.9-0.8-1.1
	c-0.4-0.3-0.8-0.4-1.3-0.4c-1,0-1.7,0.4-2.3,1.1c-0.6,0.7-0.9,1.9-0.9,3.7v7.9L75.9,136.2L75.9,136.2z"/>
<path class="st0" d="M88.9,136.2v-19.9h2.2l8.6,15.7v-15.7h2.1v19.9h-2.2l-8.6-15.7v15.7H88.9z"/>
<path class="st0" d="M113.2,131.5l2.1,0.3c-0.3,1.5-1,2.7-1.9,3.5s-2,1.2-3.4,1.2c-1.7,0-3-0.6-4.1-1.9c-1-1.3-1.6-3.1-1.6-5.5
	c0-2.5,0.5-4.4,1.6-5.7c1-1.3,2.4-2,4-2c1.5,0,2.8,0.6,3.8,1.9c1,1.3,1.5,3.2,1.5,5.6l0,0.7h-8.8c0.1,1.6,0.5,2.8,1.1,3.7
	c0.7,0.8,1.5,1.2,2.4,1.2C111.6,134.5,112.6,133.5,113.2,131.5z M106.6,127.6h6.6c-0.1-1.3-0.4-2.2-0.8-2.8
	c-0.6-0.9-1.5-1.3-2.5-1.3c-0.9,0-1.7,0.4-2.3,1.1C107,125.3,106.7,126.3,106.6,127.6z"/>
<path class="st0" d="M121.1,136.2l-4.5-14.4h2.1l2.5,8.6c0.3,1,0.5,1.9,0.8,2.9c0.2-0.8,0.4-1.7,0.7-2.7l2.6-8.8h2.1l-4.5,14.4
	H121.1z"/>
<path class="st0" d="M137,134.4c-0.7,0.7-1.4,1.2-2.1,1.6c-0.7,0.4-1.5,0.5-2.3,0.5c-1.2,0-2.2-0.4-3-1.1c-0.7-0.7-1.1-1.7-1.1-3
	c0-0.8,0.2-1.6,0.5-2.2s0.8-1.1,1.4-1.5c0.6-0.4,1.5-0.6,2.7-0.8c1.6-0.2,2.8-0.5,3.6-0.9l0-0.6c0-1-0.2-1.7-0.5-2.1
	c-0.5-0.6-1.3-0.9-2.3-0.9c-0.9,0-1.6,0.2-2.1,0.6c-0.5,0.4-0.8,1.1-1,2.2l-2-0.3c0.3-1.6,0.9-2.7,1.7-3.4c0.9-0.7,2.1-1.1,3.7-1.1
	c1.2,0,2.2,0.2,2.9,0.7c0.7,0.5,1.2,1,1.3,1.7c0.2,0.7,0.3,1.7,0.3,3v3.3c0,2.3,0,3.7,0.1,4.3c0.1,0.6,0.3,1.2,0.5,1.7h-2.1
	C137.2,135.7,137,135.1,137,134.4z M136.8,128.9c-0.7,0.4-1.8,0.7-3.3,0.9c-0.8,0.1-1.4,0.3-1.8,0.5c-0.3,0.2-0.6,0.4-0.8,0.8
	c-0.2,0.3-0.3,0.7-0.3,1.2c0,0.7,0.2,1.2,0.6,1.7c0.4,0.4,1,0.6,1.8,0.6c0.7,0,1.4-0.2,2-0.6c0.6-0.4,1-0.9,1.3-1.5s0.4-1.5,0.4-2.7
	L136.8,128.9L136.8,128.9z"/>
<path class="st0" d="M149.6,136.2v-1.8c-0.4,0.7-0.8,1.2-1.4,1.6c-0.6,0.4-1.2,0.6-1.9,0.6c-1.4,0-2.6-0.7-3.6-2
	c-1-1.3-1.5-3.2-1.5-5.6c0-1.6,0.2-3,0.7-4.2s1.1-2,1.8-2.5c0.8-0.6,1.6-0.8,2.5-0.8c0.7,0,1.3,0.2,1.8,0.5c0.6,0.4,1,0.8,1.4,1.5
	v-7.2h2v19.9L149.6,136.2L149.6,136.2z M143.3,129c0,1.9,0.3,3.3,1,4.2c0.6,0.9,1.4,1.4,2.3,1.4c0.9,0,1.6-0.4,2.2-1.3
	c0.6-0.9,0.9-2.2,0.9-3.9c0-2-0.3-3.5-0.9-4.4c-0.6-0.9-1.4-1.4-2.4-1.4c-0.8,0-1.6,0.4-2.2,1.3C143.6,125.6,143.3,127.1,143.3,129z
	"/>
<path class="st0" d="M162.4,134.4c-0.7,0.7-1.4,1.2-2.1,1.6c-0.7,0.4-1.5,0.5-2.3,0.5c-1.2,0-2.2-0.4-3-1.1c-0.7-0.7-1.1-1.7-1.1-3
	c0-0.8,0.2-1.6,0.5-2.2s0.8-1.1,1.4-1.5c0.6-0.4,1.5-0.6,2.7-0.8c1.6-0.2,2.8-0.5,3.6-0.9l0-0.6c0-1-0.2-1.7-0.5-2.1
	c-0.5-0.6-1.3-0.9-2.3-0.9c-0.9,0-1.6,0.2-2.1,0.6c-0.5,0.4-0.8,1.1-1,2.2l-2-0.3c0.3-1.6,0.9-2.7,1.7-3.4c0.9-0.7,2.1-1.1,3.7-1.1
	c1.2,0,2.2,0.2,2.9,0.7c0.7,0.5,1.2,1,1.3,1.7c0.2,0.7,0.3,1.7,0.3,3v3.3c0,2.3,0,3.7,0.1,4.3c0.1,0.6,0.3,1.2,0.5,1.7h-2.1
	C162.6,135.7,162.4,135.1,162.4,134.4z M162.2,128.9c-0.7,0.4-1.8,0.7-3.3,0.9c-0.8,0.1-1.4,0.3-1.8,0.5c-0.3,0.2-0.6,0.4-0.8,0.8
	c-0.2,0.3-0.3,0.7-0.3,1.2c0,0.7,0.2,1.2,0.6,1.7c0.4,0.4,1,0.6,1.8,0.6c0.7,0,1.4-0.2,2-0.6c0.6-0.4,1-0.9,1.3-1.5s0.4-1.5,0.4-2.7
	L162.2,128.9L162.2,128.9z"/>
<path class="st0" d="M167.6,136.2v-19.9h2.2l8.6,15.7v-15.7h2.1v19.9h-2.2l-8.6-15.7v15.7H167.6z"/>
<path class="st0" d="M191.9,131.5l2.1,0.3c-0.3,1.5-1,2.7-1.9,3.5c-0.9,0.8-2,1.2-3.4,1.2c-1.7,0-3-0.6-4.1-1.9
	c-1-1.3-1.6-3.1-1.6-5.5c0-2.5,0.5-4.4,1.6-5.7c1-1.3,2.4-2,4-2c1.5,0,2.8,0.6,3.8,1.9c1,1.3,1.5,3.2,1.5,5.6l0,0.7h-8.8
	c0.1,1.6,0.5,2.8,1.1,3.7c0.7,0.8,1.5,1.2,2.4,1.2C190.3,134.5,191.4,133.5,191.9,131.5z M185.3,127.6h6.6c-0.1-1.3-0.4-2.2-0.8-2.8
	c-0.6-0.9-1.5-1.3-2.5-1.3c-0.9,0-1.7,0.4-2.3,1.1C185.8,125.3,185.4,126.3,185.3,127.6z"/>
<path class="st0" d="M201,134l0.3,2.2c-0.6,0.1-1.1,0.2-1.5,0.2c-0.7,0-1.3-0.1-1.7-0.4c-0.4-0.3-0.7-0.7-0.9-1.1
	c-0.2-0.5-0.2-1.4-0.2-2.9v-8.3h-1.5v-1.9h1.5v-3.6l2-1.5v5h2v1.9h-2v8.4c0,0.8,0.1,1.3,0.2,1.5c0.2,0.3,0.5,0.5,1,0.5
	C200.4,134.1,200.7,134,201,134z"/>
<path class="st0" d="M205.1,136.2l-3.6-14.4h2.1l1.9,8.3l0.7,3.1l0.6-3l1.9-8.5h2.1l1.8,8.4l0.6,2.8l0.7-2.8l2-8.4h2l-3.7,14.4h-2.1
	l-1.9-8.6l-0.4-2.5l-2.4,11.1L205.1,136.2L205.1,136.2z"/>
<path class="st0" d="M218.6,129c0-2.5,0.5-4.4,1.6-5.6c1-1.3,2.4-1.9,4-1.9c1.6,0,2.9,0.6,4,1.9c1.1,1.3,1.6,3.1,1.6,5.5
	c0,2.6-0.5,4.5-1.6,5.8c-1,1.3-2.4,1.9-4,1.9c-1.6,0-2.9-0.6-4-1.9C219.2,133.3,218.6,131.4,218.6,129z M220.7,128.9
	c0,1.9,0.3,3.3,1,4.2c0.7,0.9,1.5,1.4,2.5,1.4c0.9,0,1.8-0.5,2.4-1.4c0.7-0.9,1-2.3,1-4.2c0-1.9-0.3-3.2-1-4.2
	c-0.7-0.9-1.5-1.4-2.5-1.4c-1,0-1.8,0.5-2.4,1.4S220.7,127.1,220.7,128.9z"/>
<path class="st0" d="M232.1,136.2v-14.4h1.8v2.2c0.5-1,0.9-1.7,1.3-2c0.4-0.3,0.8-0.5,1.3-0.5c0.7,0,1.4,0.3,2.1,0.8l-0.7,2.3
	c-0.5-0.4-1-0.5-1.5-0.5c-0.4,0-0.8,0.1-1.2,0.4c-0.4,0.3-0.6,0.7-0.7,1.3c-0.3,0.9-0.4,1.9-0.4,3v7.6L232.1,136.2L232.1,136.2z"/>
<path class="st0" d="M239.7,136.2v-19.9h2v11.4l4.8-5.9h2.6l-4.5,5.4l5,9.1h-2.5l-3.9-7.4l-1.4,1.7v5.7L239.7,136.2L239.7,136.2z"/>
<path class="st0" d="M250.7,129.8l2-0.2c0.1,1.1,0.4,2,0.7,2.6c0.4,0.6,0.9,1.1,1.7,1.5s1.5,0.6,2.4,0.6c1.3,0,2.3-0.3,3-0.9
	s1.1-1.4,1.1-2.4c0-0.6-0.1-1.1-0.4-1.5c-0.3-0.4-0.6-0.8-1.2-1.1c-0.5-0.3-1.6-0.7-3.4-1.2c-1.5-0.5-2.6-0.9-3.3-1.4
	c-0.7-0.5-1.2-1-1.5-1.8c-0.4-0.7-0.5-1.5-0.5-2.4c0-1.6,0.5-2.9,1.6-4c1-1,2.4-1.5,4.2-1.5c1.2,0,2.3,0.2,3.2,0.7
	c0.9,0.5,1.6,1.2,2.1,2.1c0.5,0.9,0.8,2,0.8,3.2l-2.1,0.2c-0.1-1.3-0.5-2.3-1.2-2.9c-0.7-0.6-1.6-0.9-2.8-0.9
	c-1.2,0-2.2,0.3-2.8,0.8c-0.6,0.5-1,1.3-1,2.1c0,0.8,0.2,1.4,0.7,1.9c0.5,0.4,1.5,0.9,3.2,1.3c1.6,0.4,2.7,0.8,3.4,1.2
	c1,0.5,1.8,1.2,2.3,2c0.5,0.8,0.8,1.8,0.8,3c0,1.1-0.3,2.2-0.8,3.1c-0.5,0.9-1.3,1.6-2.2,2.1c-0.9,0.5-2,0.7-3.3,0.7
	c-2,0-3.6-0.6-4.8-1.8C251.3,133.5,250.7,131.8,250.7,129.8z"/>
<path class="st0" d="M274.5,131.5l2.1,0.3c-0.3,1.5-1,2.7-1.9,3.5c-0.9,0.8-2,1.2-3.4,1.2c-1.7,0-3-0.6-4.1-1.9
	c-1-1.3-1.6-3.1-1.6-5.5c0-2.5,0.5-4.4,1.6-5.7c1-1.3,2.4-2,4-2c1.5,0,2.8,0.6,3.8,1.9c1,1.3,1.5,3.2,1.5,5.6l0,0.7h-8.8
	c0.1,1.6,0.5,2.8,1.1,3.7c0.7,0.8,1.5,1.2,2.4,1.2C272.8,134.5,273.9,133.5,274.5,131.5z M267.9,127.6h6.6c-0.1-1.3-0.4-2.2-0.8-2.8
	c-0.6-0.9-1.5-1.3-2.5-1.3c-0.9,0-1.7,0.4-2.3,1.1C268.3,125.3,267.9,126.3,267.9,127.6z"/>
<path class="st0" d="M279.1,136.2v-14.4h1.8v2.2c0.5-1,0.9-1.7,1.3-2c0.4-0.3,0.8-0.5,1.3-0.5c0.7,0,1.4,0.3,2.1,0.8l-0.7,2.3
	c-0.5-0.4-1-0.5-1.5-0.5c-0.4,0-0.8,0.1-1.2,0.4c-0.4,0.3-0.6,0.7-0.7,1.3c-0.3,0.9-0.4,1.9-0.4,3v7.6L279.1,136.2L279.1,136.2z"/>
<path class="st0" d="M290,136.2l-4.5-14.4h2.1l2.6,8.6c0.3,1,0.5,1.9,0.8,2.9c0.2-0.8,0.4-1.7,0.7-2.7l2.6-8.8h2.1l-4.5,14.4H290z"
	/>
<path class="st0" d="M298.1,119.1v-2.8h2v2.8H298.1z M298.1,136.2v-14.4h2v14.4L298.1,136.2L298.1,136.2z"/>
<path class="st0" d="M310.9,130.9l2,0.3c-0.2,1.7-0.8,3-1.7,3.9c-0.9,0.9-2,1.4-3.3,1.4c-1.6,0-2.8-0.6-3.8-1.9
	c-1-1.3-1.5-3.2-1.5-5.6c0-2.5,0.5-4.4,1.5-5.7c1-1.3,2.3-1.9,3.9-1.9c1.2,0,2.3,0.4,3.1,1.1c0.8,0.8,1.4,1.9,1.6,3.4l-1.9,0.4
	c-0.2-1-0.5-1.7-1-2.2c-0.5-0.5-1-0.7-1.7-0.7c-1,0-1.8,0.4-2.5,1.3c-0.6,0.9-1,2.3-1,4.2c0,2,0.3,3.4,0.9,4.3
	c0.6,0.9,1.4,1.3,2.4,1.3c0.8,0,1.4-0.3,2-0.9C310.4,133,310.8,132.1,310.9,130.9z"/>
<path class="st0" d="M322.7,131.5l2.1,0.3c-0.3,1.5-1,2.7-1.9,3.5c-0.9,0.8-2,1.2-3.4,1.2c-1.7,0-3-0.6-4.1-1.9
	c-1-1.3-1.6-3.1-1.6-5.5c0-2.5,0.5-4.4,1.6-5.7c1-1.3,2.4-2,4-2c1.5,0,2.8,0.6,3.8,1.9c1,1.3,1.5,3.2,1.5,5.6l0,0.7H316
	c0.1,1.6,0.5,2.8,1.1,3.7c0.7,0.8,1.5,1.2,2.4,1.2C321,134.5,322.1,133.5,322.7,131.5z M316.1,127.6h6.6c-0.1-1.3-0.4-2.2-0.8-2.8
	c-0.6-0.9-1.5-1.3-2.5-1.3c-0.9,0-1.7,0.4-2.3,1.1C316.5,125.3,316.2,126.3,316.1,127.6z"/>
<path class="st0" d="M326.5,131.9l2-0.4c0.1,1,0.4,1.8,1,2.3c0.5,0.5,1.2,0.7,2.1,0.7s1.5-0.2,2-0.6c0.5-0.4,0.7-1,0.7-1.6
	c0-0.6-0.2-1-0.6-1.3c-0.3-0.2-1-0.5-2-0.8c-1.6-0.5-2.6-0.9-3.1-1.2c-0.5-0.3-0.9-0.8-1.2-1.3c-0.3-0.6-0.4-1.2-0.4-1.9
	c0-1.2,0.4-2.2,1.2-3c0.8-0.8,1.9-1.2,3.3-1.2c0.9,0,1.7,0.2,2.3,0.5c0.7,0.3,1.2,0.7,1.5,1.3c0.4,0.5,0.6,1.3,0.7,2.3l-2,0.3
	c-0.2-1.6-1-2.4-2.6-2.4c-0.9,0-1.5,0.2-1.9,0.5c-0.4,0.3-0.6,0.8-0.6,1.3c0,0.5,0.2,1,0.6,1.3c0.2,0.2,1,0.5,2.2,0.9
	c1.7,0.5,2.7,0.9,3.2,1.3c0.5,0.3,0.9,0.7,1.1,1.3c0.3,0.5,0.4,1.2,0.4,1.9c0,1.4-0.4,2.5-1.3,3.4s-2.1,1.3-3.6,1.3
	C328.6,136.5,327,134.9,326.5,131.9z"/>
<g>
	<polygon class="st0" points="56.1,28.7 56.1,42.9 56.1,59.6 52,53.6 52,53.6 37.2,31.8 37.2,31.8 27.8,18 6.1,18 6.1,90.2 0,90.2 
		16.7,111.4 33.4,90.2 27.9,90.2 27.9,51.9 56.1,93.1 78,93.1 78,18 56.1,18 	"/>
	<path class="st0" d="M145.6,43.2c-0.9-0.4-1.8-0.8-2.7-1.2c-0.2-0.1-0.4,0-0.5,0.1c-0.7,0.4-1.3,0.9-1.9,1.4
		c-0.6,0.5-0.8,1.3-0.4,2c0.4,0.6,0.4,1.1,0.2,1.8c-0.2,0.8-0.3,1.7,0.2,2.4c0.1,0.1,0.1,0.2,0.1,0.4c0.2,1.1,0.4,2.1,0.6,3.2
		l-24-35.3H95.6v75.1h21.8V51.9l28.1,41.2h21.9V18h-21.9V43.2z"/>
	<path class="st0" d="M335.6,57.6c-2-3.3-5.2-6.1-9.6-8.3c-4.4-2.2-11.7-4.4-21.8-6.6c-4.1-0.9-6.7-1.8-7.8-2.8
		c-1.1-1-1.7-2-1.7-3.2c0-1.6,0.7-3,2-4.2c1.4-1.1,3.4-1.7,6.1-1.7c3.3,0,5.8,0.8,7.7,2.3c1.9,1.5,3.1,4,3.7,7.4l21.9-1.3
		c-1-7.8-4-13.5-9-17c-5-3.6-12.4-5.4-22-5.4c-7.8,0-14,1-18.5,2.9c-4.5,2-7.9,4.7-10.1,8.1c-2.2,3.4-3.4,7.1-3.4,10.9
		c0,5.9,2.2,10.7,6.6,14.5c4.3,3.8,11.6,6.8,21.8,9.1c6.2,1.4,10.2,2.8,11.9,4.4c1.7,1.5,2.6,3.3,2.6,5.2c0,2.1-0.9,3.9-2.7,5.4
		c-1.8,1.6-4.3,2.3-7.7,2.3c-4.4,0-7.9-1.5-10.2-4.6c-1.5-1.9-2.4-4.6-2.9-8.2l-22.1,1.4c0.6,7.6,3.4,13.8,8.4,18.8
		c4.9,4.9,13.8,7.4,26.5,7.4c7.3,0,13.3-1.1,18.1-3.2c4.8-2.1,8.5-5.2,11.2-9.2c2.7-4.1,4-8.5,4-13.3
		C338.6,64.6,337.6,60.9,335.6,57.6z"/>
	<polygon class="st0" points="229.3,21.2 235.1,21.2 235.1,59.6 206.8,18 185.1,18 185.1,93.1 207,93.1 207,51.9 235.1,93.1 
		257,93.1 257,21.2 262.7,21.2 246,0 	"/>
</g>
</svg>
