<?xml version="1.0" encoding="utf-8"?>
<!-- Generator: Adobe Illustrator 16.0.0, SVG Export Plug-In . SVG Version: 6.00 Build 0)  -->
<!DOCTYPE svg PUBLIC "-//W3C//DTD SVG 1.1//EN" "http://www.w3.org/Graphics/SVG/1.1/DTD/svg11.dtd">
<svg version="1.1" id="Layer_1" xmlns="http://www.w3.org/2000/svg" xmlns:xlink="http://www.w3.org/1999/xlink" x="0px" y="0px"
	 width="338.609px" height="136.516px" viewBox="0 0 338.609 136.516" enable-background="new 0 0 338.609 136.516"
	 xml:space="preserve">
<path fill="#484949" d="M0,136.175v-19.939h2.217l8.598,15.688v-15.688h2.065v19.939h-2.217L2.08,120.486v15.688L0,136.175
	L0,136.175z"/>
<path fill="#484949" d="M15.506,128.952c0-2.493,0.524-4.375,1.571-5.646s2.374-1.904,3.979-1.904c1.578,0,2.897,0.636,3.958,1.904
	c1.063,1.27,1.593,3.103,1.593,5.494c0,2.595-0.521,4.524-1.564,5.794c-1.043,1.271-2.372,1.904-3.985,1.904
	c-1.587,0-2.907-0.637-3.965-1.911C16.034,133.316,15.506,131.437,15.506,128.952z M17.56,128.946c0,1.869,0.34,3.262,1.02,4.174
	c0.68,0.913,1.523,1.369,2.53,1.369c0.941,0,1.752-0.462,2.428-1.384c0.676-0.921,1.014-2.309,1.014-4.159
	c0-1.861-0.34-3.248-1.02-4.16s-1.523-1.369-2.53-1.369c-0.952,0-1.764,0.459-2.435,1.376
	C17.895,125.709,17.56,127.094,17.56,128.946z"/>
<path fill="#484949" d="M28.969,136.175V121.73h1.811v2.189c0.462-1.017,0.886-1.688,1.271-2.021
	c0.387-0.33,0.818-0.496,1.301-0.496c0.671,0,1.354,0.265,2.054,0.789l-0.68,2.271c-0.499-0.354-0.984-0.529-1.455-0.529
	c-0.428,0-0.816,0.148-1.17,0.447c-0.354,0.301-0.604,0.718-0.748,1.252c-0.256,0.935-0.383,1.928-0.383,2.979v7.563L28.969,136.175
	L28.969,136.175z"/>
<path fill="#484949" d="M41.036,133.985l0.272,2.162c-0.555,0.146-1.054,0.219-1.496,0.219c-0.698,0-1.262-0.14-1.688-0.415
	c-0.427-0.276-0.719-0.655-0.877-1.137c-0.158-0.48-0.238-1.438-0.238-2.87v-8.312H35.54v-1.903h1.469v-3.577l2-1.469v5.046h2.026
	v1.903H39.01v8.447c0,0.778,0.061,1.283,0.179,1.51c0.172,0.326,0.492,0.489,0.965,0.489
	C40.378,134.08,40.673,134.049,41.036,133.985z"/>
<path fill="#484949" d="M42.927,136.175v-19.939h2v7.155c0.474-0.662,1.004-1.158,1.6-1.49c0.594-0.329,1.249-0.495,1.965-0.495
	c1.261,0,2.256,0.4,2.986,1.203c0.729,0.803,1.095,2.272,1.095,4.413v9.153h-2v-9.153c0-1.251-0.222-2.147-0.666-2.691
	c-0.445-0.544-1.059-0.816-1.836-0.816c-0.871,0-1.612,0.352-2.226,1.048c-0.61,0.698-0.918,1.938-0.918,3.714v7.901L42.927,136.175
	L42.927,136.175z"/>
<path fill="#484949" d="M63.724,131.523l2.065,0.313c-0.345,1.542-0.968,2.704-1.87,3.488c-0.9,0.784-2.02,1.177-3.353,1.177
	c-1.68,0-3.036-0.637-4.074-1.911c-1.038-1.272-1.557-3.111-1.557-5.515c0-2.494,0.521-4.396,1.569-5.706
	c1.048-1.311,2.374-1.967,3.979-1.967c1.532,0,2.811,0.646,3.835,1.933c1.023,1.287,1.537,3.15,1.537,5.59l-0.016,0.653h-8.841
	c0.082,1.623,0.458,2.848,1.129,3.672c0.671,0.826,1.487,1.238,2.448,1.238C62.086,134.489,63.134,133.5,63.724,131.523z
	 M57.126,127.565h6.611c-0.091-1.252-0.358-2.187-0.803-2.804c-0.646-0.896-1.466-1.347-2.464-1.347
	c-0.896,0-1.662,0.374-2.299,1.123C57.539,125.287,57.19,126.296,57.126,127.565z"/>
<path fill="#484949" d="M68.334,136.175V121.73h1.811v2.189c0.462-1.017,0.886-1.688,1.271-2.021
	c0.385-0.33,0.818-0.496,1.299-0.496c0.671,0,1.355,0.265,2.056,0.789l-0.682,2.271c-0.499-0.354-0.982-0.529-1.455-0.529
	c-0.426,0-0.814,0.148-1.17,0.447c-0.354,0.301-0.603,0.718-0.748,1.252c-0.254,0.935-0.381,1.928-0.381,2.979v7.563L68.334,136.175
	L68.334,136.175z"/>
<path fill="#484949" d="M75.938,136.175V121.73h1.809v2.041c0.435-0.794,0.966-1.388,1.596-1.777
	c0.629-0.394,1.353-0.589,2.166-0.589c0.635,0,1.222,0.125,1.76,0.373c0.537,0.25,0.973,0.576,1.304,0.979
	c0.33,0.403,0.577,0.928,0.74,1.571c0.163,0.645,0.243,1.632,0.243,2.965v8.882h-2v-8.796c0-1.063-0.091-1.839-0.271-2.328
	c-0.182-0.489-0.465-0.869-0.85-1.138c-0.388-0.269-0.832-0.401-1.342-0.401c-0.961,0-1.728,0.358-2.299,1.076
	c-0.569,0.718-0.855,1.946-0.855,3.688v7.896L75.938,136.175L75.938,136.175z"/>
<path d="M88.859,136.175v-19.939h2.217l8.596,15.688v-15.688h2.067v19.939h-2.217l-8.583-15.688v15.688H88.859z"/>
<path d="M113.219,131.523l2.067,0.313c-0.345,1.542-0.968,2.704-1.87,3.488s-2.02,1.177-3.353,1.177
	c-1.68,0-3.036-0.637-4.074-1.911c-1.038-1.272-1.557-3.111-1.557-5.515c0-2.494,0.521-4.396,1.569-5.706
	c1.048-1.311,2.374-1.967,3.979-1.967c1.53,0,2.811,0.646,3.835,1.933c1.023,1.287,1.537,3.15,1.537,5.59l-0.016,0.653H106.5
	c0.082,1.623,0.458,2.848,1.129,3.672c0.671,0.826,1.487,1.238,2.448,1.238C111.583,134.489,112.63,133.5,113.219,131.523z
	 M106.623,127.565h6.611c-0.091-1.252-0.358-2.187-0.805-2.804c-0.644-0.896-1.464-1.347-2.462-1.347
	c-0.896,0-1.664,0.374-2.299,1.123C107.036,125.287,106.687,126.296,106.623,127.565z"/>
<path d="M121.138,136.175l-4.506-14.444h2.122l2.549,8.65c0.291,0.979,0.547,1.949,0.765,2.91c0.172-0.762,0.417-1.677,0.734-2.747
	l2.646-8.813h2.065l-4.506,14.444H121.138z"/>
<path d="M136.969,134.393c-0.671,0.697-1.368,1.226-2.095,1.577c-0.726,0.354-1.478,0.53-2.258,0.53
	c-1.233,0-2.217-0.371-2.952-1.115c-0.734-0.742-1.102-1.744-1.102-3.006c0-0.834,0.172-1.572,0.517-2.217s0.816-1.146,1.415-1.511
	c0.599-0.361,1.505-0.63,2.72-0.803c1.632-0.239,2.83-0.524,3.591-0.855l0.016-0.626c0-0.988-0.177-1.683-0.53-2.081
	c-0.499-0.58-1.265-0.871-2.299-0.871c-0.936,0-1.632,0.193-2.095,0.581c-0.462,0.388-0.804,1.113-1.021,2.181l-1.972-0.325
	c0.281-1.552,0.85-2.681,1.707-3.389c0.855-0.707,2.083-1.062,3.679-1.062c1.242,0,2.217,0.232,2.924,0.7
	c0.708,0.469,1.154,1.046,1.34,1.733c0.188,0.688,0.279,1.696,0.279,3.021v3.266c0,2.285,0.043,3.726,0.129,4.317
	c0.086,0.595,0.256,1.172,0.51,1.733h-2.095C137.168,135.676,137.032,135.082,136.969,134.393z M136.803,128.925
	c-0.732,0.363-1.825,0.673-3.276,0.926c-0.843,0.146-1.435,0.313-1.77,0.497c-0.335,0.186-0.596,0.447-0.78,0.788
	c-0.188,0.341-0.279,0.732-0.279,1.177c0,0.688,0.213,1.239,0.639,1.652c0.426,0.412,1.018,0.618,1.771,0.618
	c0.716,0,1.365-0.187,1.952-0.559c0.585-0.371,1.021-0.867,1.313-1.488s0.436-1.525,0.436-2.713L136.803,128.925L136.803,128.925z"
	/>
<path d="M149.631,136.175v-1.821c-0.361,0.697-0.83,1.229-1.399,1.599c-0.571,0.368-1.188,0.551-1.852,0.551
	c-1.396,0-2.604-0.659-3.625-1.979c-1.02-1.319-1.528-3.176-1.528-5.569c0-1.642,0.226-3.033,0.679-4.177s1.057-1.989,1.813-2.543
	c0.757-0.555,1.598-0.829,2.521-0.829c0.661,0,1.272,0.175,1.84,0.521c0.566,0.351,1.034,0.838,1.406,1.464v-7.155h2.024v19.939
	H149.631z M143.279,128.966c0,1.868,0.325,3.257,0.973,4.162c0.649,0.907,1.404,1.36,2.268,1.36c0.853,0,1.592-0.438,2.219-1.307
	c0.626-0.871,0.938-2.187,0.938-3.943c0-2.022-0.313-3.498-0.938-4.429c-0.626-0.931-1.416-1.396-2.368-1.396
	c-0.844,0-1.57,0.446-2.178,1.34C143.583,125.649,143.279,127.052,143.279,128.966z"/>
<path d="M162.376,134.393c-0.671,0.697-1.37,1.226-2.095,1.577c-0.728,0.354-1.479,0.53-2.258,0.53
	c-1.233,0-2.219-0.371-2.952-1.115c-0.734-0.742-1.104-1.744-1.104-3.006c0-0.834,0.174-1.572,0.519-2.217s0.814-1.146,1.415-1.511
	c0.599-0.361,1.505-0.63,2.72-0.803c1.632-0.239,2.83-0.524,3.591-0.855l0.016-0.626c0-0.988-0.179-1.683-0.53-2.081
	c-0.499-0.58-1.267-0.871-2.299-0.871c-0.936,0-1.632,0.193-2.097,0.581c-0.462,0.388-0.802,1.113-1.02,2.181l-1.972-0.325
	c0.279-1.552,0.85-2.681,1.707-3.389c0.855-0.707,2.083-1.062,3.679-1.062c1.242,0,2.217,0.232,2.924,0.7
	c0.708,0.469,1.154,1.046,1.34,1.733c0.188,0.688,0.279,1.696,0.279,3.021v3.266c0,2.285,0.043,3.726,0.129,4.317
	c0.086,0.595,0.256,1.172,0.51,1.733h-2.095C162.576,135.676,162.439,135.082,162.376,134.393z M162.213,128.925
	c-0.732,0.363-1.827,0.673-3.276,0.926c-0.845,0.146-1.435,0.313-1.77,0.497c-0.335,0.186-0.596,0.447-0.782,0.788
	c-0.186,0.341-0.277,0.732-0.277,1.177c0,0.688,0.213,1.239,0.639,1.652c0.426,0.412,1.016,0.618,1.77,0.618
	c0.717,0,1.366-0.187,1.951-0.559c0.585-0.371,1.022-0.867,1.313-1.488s0.435-1.525,0.435-2.713L162.213,128.925L162.213,128.925z"
	/>
<path fill="#484949" d="M167.586,136.175v-19.939h2.217l8.598,15.688v-15.688h2.066v19.939h-2.217l-8.584-15.688v15.688H167.586z"/>
<path fill="#484949" d="M191.946,131.523l2.065,0.313c-0.345,1.542-0.968,2.704-1.868,3.488c-0.902,0.784-2.021,1.177-3.354,1.177
	c-1.678,0-3.035-0.637-4.073-1.911c-1.039-1.272-1.558-3.111-1.558-5.515c0-2.494,0.522-4.396,1.571-5.706
	c1.047-1.312,2.373-1.967,3.978-1.967c1.533,0,2.813,0.646,3.836,1.933c1.024,1.287,1.537,3.15,1.537,5.59l-0.014,0.653h-8.841
	c0.079,1.623,0.457,2.848,1.129,3.672c0.671,0.826,1.485,1.238,2.446,1.238C190.309,134.489,191.357,133.5,191.946,131.523z
	 M185.349,127.565h6.608c-0.091-1.252-0.356-2.187-0.802-2.804c-0.646-0.896-1.465-1.347-2.462-1.347
	c-0.898,0-1.664,0.374-2.299,1.123C185.76,125.286,185.413,126.296,185.349,127.565z"/>
<path fill="#484949" d="M201.019,133.985l0.271,2.162c-0.553,0.146-1.052,0.219-1.496,0.219c-0.698,0-1.261-0.14-1.687-0.415
	c-0.429-0.276-0.721-0.655-0.877-1.137c-0.159-0.479-0.238-1.438-0.238-2.87v-8.312h-1.469v-1.903h1.469v-3.577l1.999-1.469v5.046
	h2.027v1.903h-2.027v8.447c0,0.778,0.06,1.283,0.177,1.51c0.173,0.326,0.494,0.489,0.966,0.489
	C200.361,134.08,200.656,134.049,201.019,133.985z"/>
<path fill="#484949" d="M205.092,136.175l-3.639-14.444h2.075l1.886,8.338l0.697,3.103l0.627-2.979l1.879-8.461h2.072l1.763,8.379
	l0.597,2.762l0.68-2.788l2.021-8.353h1.959l-3.698,14.444h-2.089l-1.891-8.649l-0.449-2.462l-2.394,11.111H205.092z"/>
<path fill="#484949" d="M218.632,128.952c0-2.493,0.523-4.375,1.571-5.646c1.047-1.271,2.373-1.904,3.979-1.904
	c1.576,0,2.896,0.636,3.956,1.904c1.063,1.27,1.594,3.103,1.594,5.494c0,2.595-0.522,4.524-1.564,5.794
	c-1.043,1.271-2.372,1.904-3.983,1.904c-1.589,0-2.909-0.637-3.967-1.911C219.161,133.316,218.632,131.437,218.632,128.952z
	 M220.686,128.946c0,1.869,0.341,3.262,1.021,4.174c0.68,0.913,1.523,1.369,2.53,1.369c0.94,0,1.752-0.462,2.428-1.384
	c0.675-0.921,1.013-2.309,1.013-4.159c0-1.861-0.34-3.248-1.02-4.16c-0.681-0.912-1.523-1.369-2.53-1.369
	c-0.952,0-1.764,0.459-2.435,1.376S220.686,127.094,220.686,128.946z"/>
<path fill="#484949" d="M232.096,136.175V121.73h1.812v2.189c0.462-1.017,0.886-1.688,1.271-2.021
	c0.387-0.33,0.818-0.496,1.301-0.496c0.671,0,1.354,0.265,2.054,0.789l-0.68,2.271c-0.499-0.354-0.984-0.529-1.456-0.529
	c-0.428,0-0.815,0.148-1.169,0.447c-0.354,0.301-0.604,0.718-0.748,1.252c-0.254,0.935-0.383,1.928-0.383,2.979v7.563
	L232.096,136.175L232.096,136.175z"/>
<path fill="#484949" d="M239.743,136.175v-19.939h1.999v11.391l4.767-5.896h2.601l-4.53,5.363l4.979,9.081h-2.463l-3.936-7.402
	l-1.417,1.678v5.727L239.743,136.175L239.743,136.175z"/>
<path d="M250.677,129.755l2.04-0.218c0.108,1.098,0.355,1.952,0.741,2.563c0.385,0.61,0.938,1.104,1.652,1.477
	s1.521,0.558,2.421,0.558c1.288,0,2.287-0.313,2.999-0.942c0.712-0.629,1.066-1.444,1.066-2.449c0-0.588-0.13-1.103-0.388-1.54
	c-0.259-0.438-0.646-0.799-1.17-1.079c-0.521-0.281-1.647-0.678-3.38-1.189c-1.542-0.457-2.639-0.917-3.292-1.381
	c-0.652-0.462-1.16-1.049-1.523-1.762c-0.36-0.711-0.544-1.517-0.544-2.414c0-1.612,0.521-2.933,1.564-3.958
	c1.043-1.023,2.448-1.537,4.217-1.537c1.215,0,2.278,0.24,3.189,0.722c0.909,0.48,1.616,1.17,2.121,2.067
	c0.504,0.896,0.771,1.954,0.81,3.169l-2.081,0.19c-0.108-1.298-0.496-2.259-1.163-2.885c-0.666-0.626-1.603-0.938-2.809-0.938
	c-1.226,0-2.158,0.273-2.804,0.823c-0.644,0.548-0.966,1.258-0.966,2.128c0,0.808,0.236,1.433,0.708,1.877
	c0.472,0.443,1.532,0.896,3.184,1.35c1.611,0.446,2.745,0.833,3.396,1.161c0.997,0.511,1.75,1.181,2.259,2.01
	c0.511,0.827,0.766,1.817,0.766,2.969c0,1.142-0.27,2.182-0.805,3.118c-0.533,0.938-1.263,1.649-2.184,2.141
	c-0.92,0.488-2.028,0.732-3.325,0.732c-2.021,0-3.634-0.606-4.835-1.821C251.344,133.478,250.721,131.831,250.677,129.755z"/>
<path d="M274.454,131.523l2.067,0.313c-0.347,1.542-0.97,2.704-1.87,3.488c-0.902,0.784-2.021,1.177-3.354,1.177
	c-1.678,0-3.035-0.637-4.071-1.911c-1.039-1.272-1.56-3.111-1.56-5.515c0-2.494,0.523-4.396,1.571-5.706
	c1.047-1.312,2.373-1.967,3.978-1.967c1.533,0,2.813,0.646,3.836,1.933c1.024,1.287,1.537,3.15,1.537,5.59l-0.014,0.653h-8.841
	c0.081,1.623,0.458,2.848,1.129,3.672c0.671,0.826,1.487,1.238,2.448,1.238C272.817,134.489,273.865,133.5,274.454,131.523z
	 M267.857,127.565h6.608c-0.091-1.252-0.356-2.187-0.802-2.804c-0.645-0.896-1.465-1.347-2.462-1.347
	c-0.898,0-1.664,0.374-2.299,1.123C268.27,125.287,267.92,126.296,267.857,127.565z"/>
<path d="M279.065,136.175V121.73h1.81v2.189c0.462-1.017,0.886-1.688,1.271-2.021c0.385-0.33,0.816-0.496,1.299-0.496
	c0.671,0,1.354,0.265,2.054,0.789l-0.68,2.271c-0.499-0.354-0.984-0.529-1.456-0.529c-0.426,0-0.815,0.148-1.169,0.447
	c-0.354,0.301-0.604,0.718-0.748,1.252c-0.254,0.935-0.381,1.928-0.381,2.979v7.563L279.065,136.175L279.065,136.175z"/>
<path d="M289.978,136.175l-4.509-14.444h2.122l2.551,8.65c0.291,0.979,0.545,1.949,0.764,2.91c0.172-0.762,0.418-1.677,0.735-2.747
	l2.645-8.813h2.067l-4.508,14.444H289.978z"/>
<path d="M298.093,119.051v-2.815h2v2.815H298.093z M298.093,136.175V121.73h2v14.444L298.093,136.175L298.093,136.175z"/>
<path d="M310.919,130.884l1.975,0.313c-0.229,1.724-0.798,3.037-1.707,3.943c-0.911,0.906-2.009,1.359-3.285,1.359
	c-1.551,0-2.827-0.637-3.829-1.911c-1.002-1.272-1.503-3.156-1.503-5.65c0-2.513,0.506-4.396,1.517-5.65
	c1.012-1.256,2.313-1.884,3.897-1.884c1.224,0,2.255,0.381,3.094,1.143c0.839,0.763,1.376,1.904,1.612,3.429l-1.945,0.354
	c-0.19-0.976-0.521-1.703-0.993-2.188c-0.472-0.481-1.038-0.726-1.7-0.726c-0.986,0-1.807,0.438-2.455,1.313
	c-0.646,0.875-0.973,2.266-0.973,4.168c0,1.969,0.313,3.393,0.933,4.271c0.62,0.88,1.416,1.319,2.389,1.319
	c0.762,0,1.412-0.293,1.952-0.878C310.432,133.026,310.775,132.117,310.919,130.884z"/>
<path d="M322.685,131.523l2.065,0.313c-0.345,1.542-0.968,2.704-1.87,3.488c-0.9,0.784-2.02,1.177-3.353,1.177
	c-1.678,0-3.035-0.637-4.073-1.911c-1.039-1.272-1.558-3.111-1.558-5.515c0-2.494,0.521-4.396,1.569-5.706
	c1.049-1.312,2.373-1.967,3.979-1.967c1.533,0,2.812,0.646,3.836,1.933c1.022,1.287,1.537,3.15,1.537,5.59l-0.016,0.653h-8.841
	c0.081,1.623,0.458,2.848,1.129,3.672c0.671,0.826,1.487,1.238,2.448,1.238C321.048,134.489,322.094,133.5,322.685,131.523z
	 M316.088,127.565h6.61c-0.091-1.252-0.358-2.187-0.802-2.804c-0.646-0.896-1.467-1.347-2.462-1.347
	c-0.898,0-1.664,0.374-2.301,1.123C316.501,125.287,316.152,126.296,316.088,127.565z"/>
<path d="M326.521,131.85l2-0.382c0.115,1.021,0.438,1.778,0.963,2.274c0.523,0.497,1.222,0.745,2.09,0.745s1.54-0.217,2.016-0.646
	c0.477-0.43,0.712-0.977,0.712-1.639c0-0.571-0.204-1.017-0.61-1.333c-0.281-0.219-0.961-0.489-2.04-0.816
	c-1.562-0.479-2.604-0.889-3.128-1.224c-0.526-0.336-0.937-0.784-1.227-1.348c-0.29-0.563-0.436-1.2-0.436-1.918
	c0-1.232,0.395-2.234,1.184-3.006c0.789-0.771,1.882-1.156,3.278-1.156c0.879,0,1.652,0.159,2.319,0.478
	c0.666,0.317,1.176,0.743,1.528,1.278c0.354,0.534,0.6,1.301,0.734,2.299l-1.959,0.326c-0.184-1.578-1.038-2.367-2.57-2.367
	c-0.871,0-1.52,0.174-1.945,0.521c-0.427,0.349-0.64,0.792-0.64,1.334c0,0.533,0.204,0.953,0.613,1.261
	c0.245,0.181,0.972,0.47,2.181,0.866c1.661,0.525,2.736,0.947,3.226,1.262c0.486,0.313,0.865,0.739,1.139,1.279
	c0.271,0.541,0.406,1.185,0.406,1.929c0,1.381-0.438,2.498-1.313,3.353c-0.875,0.855-2.069,1.28-3.584,1.28
	C328.621,136.501,326.974,134.95,326.521,131.85z"/>
<g>
	<polygon points="56.096,28.688 56.096,42.938 56.096,59.574 52.037,53.629 52.039,53.635 37.159,31.774 37.152,31.767 
		27.811,18.02 6.132,18.02 6.132,90.22 0.003,90.22 16.693,111.448 33.356,90.22 27.943,90.22 27.943,51.906 56.096,93.142 
		77.962,93.142 77.962,18.02 56.096,18.02 	"/>
	<path d="M145.599,43.236c-0.904-0.422-1.808-0.823-2.685-1.194c-0.164-0.054-0.38,0.025-0.516,0.108
		c-0.652,0.437-1.304,0.896-1.927,1.385c-0.599,0.461-0.786,1.329-0.354,2.033c0.354,0.569,0.354,1.141,0.189,1.769
		c-0.218,0.839-0.271,1.683,0.243,2.413c0.055,0.108,0.107,0.217,0.138,0.353c0.212,1.063,0.425,2.139,0.637,3.206l-24.013-35.277
		H95.641v75.113h21.826V51.896l28.132,41.246h21.878V18.027h-21.878V43.236z"/>
	<path d="M335.61,57.583c-1.997-3.313-5.192-6.089-9.582-8.326c-4.387-2.237-11.656-4.448-21.801-6.636
		c-4.101-0.854-6.696-1.778-7.789-2.768c-1.127-0.957-1.69-2.031-1.69-3.229c0-1.637,0.688-3.029,2.049-4.174
		c1.367-1.146,3.399-1.716,6.101-1.716c3.276,0,5.849,0.768,7.712,2.305c1.858,1.536,3.082,3.999,3.664,7.38l21.876-1.284
		c-0.954-7.785-3.955-13.466-8.992-17.034c-5.037-3.57-12.354-5.354-21.953-5.354c-7.823,0-13.982,0.979-18.474,2.942
		c-4.49,1.966-7.854,4.665-10.096,8.099c-2.235,3.431-3.354,7.08-3.354,10.938c0,5.875,2.185,10.709,6.56,14.501
		c4.337,3.791,11.598,6.831,21.777,9.121c6.213,1.365,10.178,2.816,11.883,4.354c1.711,1.538,2.566,3.28,2.566,5.227
		c0,2.05-0.897,3.853-2.693,5.405c-1.793,1.556-4.345,2.332-7.66,2.332c-4.438,0-7.854-1.521-10.248-4.562
		c-1.466-1.878-2.438-4.609-2.918-8.198l-22.082,1.383c0.648,7.585,3.433,13.835,8.351,18.754
		c4.919,4.918,13.766,7.381,26.543,7.381c7.271,0,13.303-1.053,18.083-3.153c4.784-2.101,8.509-5.185,11.173-9.249
		c2.666-4.063,3.998-8.505,3.998-13.321C338.609,64.604,337.608,60.896,335.61,57.583z"/>
	<polygon points="229.334,21.231 235.107,21.231 235.107,59.582 206.824,18.027 185.149,18.027 185.149,93.142 206.977,93.142 
		206.977,51.896 235.107,93.142 256.986,93.142 256.986,21.231 262.684,21.231 246.006,0 	"/>
</g>
</svg>
