<?xml version="1.0" encoding="utf-8"?>
<!-- Generator: Adobe Illustrator 24.0.1, SVG Export Plug-In . SVG Version: 6.00 Build 0)  -->
<svg version="1.1" id="Layer_1" xmlns="http://www.w3.org/2000/svg" xmlns:xlink="http://www.w3.org/1999/xlink" x="0px" y="0px"
	 viewBox="0 0 338.6 115" style="enable-background:new 0 0 338.6 115;" xml:space="preserve">
<style type="text/css">
	.st0{fill:#FFFFFF;}
</style>
<g>
	<polygon class="st0" points="56.1,28.7 56.1,42.9 56.1,59.6 52,53.6 52,53.6 37.2,31.8 37.2,31.8 27.8,18 6.1,18 6.1,90.2 0,90.2 
		16.7,111.4 33.4,90.2 27.9,90.2 27.9,51.9 56.1,93.1 78,93.1 78,18 56.1,18 	"/>
	<path class="st0" d="M145.6,43.2c-0.9-0.4-1.8-0.8-2.7-1.2c-0.2-0.1-0.4,0-0.5,0.1c-0.7,0.4-1.3,0.9-1.9,1.4
		c-0.6,0.5-0.8,1.3-0.4,2c0.4,0.6,0.4,1.1,0.2,1.8c-0.2,0.8-0.3,1.7,0.2,2.4c0.1,0.1,0.1,0.2,0.1,0.4c0.2,1.1,0.4,2.1,0.6,3.2
		l-24-35.3H95.6v75.1h21.8V51.9l28.1,41.2h21.9V18h-21.9V43.2z"/>
	<path class="st0" d="M335.6,57.6c-2-3.3-5.2-6.1-9.6-8.3c-4.4-2.2-11.7-4.4-21.8-6.6c-4.1-0.9-6.7-1.8-7.8-2.8
		c-1.1-1-1.7-2-1.7-3.2c0-1.6,0.7-3,2-4.2c1.4-1.1,3.4-1.7,6.1-1.7c3.3,0,5.8,0.8,7.7,2.3c1.9,1.5,3.1,4,3.7,7.4l21.9-1.3
		c-1-7.8-4-13.5-9-17c-5-3.6-12.4-5.4-22-5.4c-7.8,0-14,1-18.5,2.9c-4.5,2-7.9,4.7-10.1,8.1c-2.2,3.4-3.4,7.1-3.4,10.9
		c0,5.9,2.2,10.7,6.6,14.5c4.3,3.8,11.6,6.8,21.8,9.1c6.2,1.4,10.2,2.8,11.9,4.4c1.7,1.5,2.6,3.3,2.6,5.2c0,2.1-0.9,3.9-2.7,5.4
		c-1.8,1.6-4.3,2.3-7.7,2.3c-4.4,0-7.9-1.5-10.2-4.6c-1.5-1.9-2.4-4.6-2.9-8.2l-22.1,1.4c0.6,7.6,3.4,13.8,8.4,18.8
		c4.9,4.9,13.8,7.4,26.5,7.4c7.3,0,13.3-1.1,18.1-3.2c4.8-2.1,8.5-5.2,11.2-9.2c2.7-4.1,4-8.5,4-13.3
		C338.6,64.6,337.6,60.9,335.6,57.6z"/>
	<polygon class="st0" points="229.3,21.2 235.1,21.2 235.1,59.6 206.8,18 185.1,18 185.1,93.1 207,93.1 207,51.9 235.1,93.1 
		257,93.1 257,21.2 262.7,21.2 246,0 	"/>
</g>
</svg>
