<svg xmlns="http://www.w3.org/2000/svg" width="50.34" height="50.341" viewBox="0 0 50.34 50.341">
  <path id="Icon_awesome-phone-alt" data-name="Icon awesome-phone-alt" d="M48.9,35.573,37.892,30.853a2.36,2.36,0,0,0-2.753.678L30.263,37.49A36.444,36.444,0,0,1,12.841,20.068L18.8,15.192a2.354,2.354,0,0,0,.678-2.753L14.758,1.426A2.375,2.375,0,0,0,12.054.06L1.829,2.42A2.36,2.36,0,0,0,0,4.719,45.616,45.616,0,0,0,45.621,50.341a2.36,2.36,0,0,0,2.3-1.829l2.36-10.225A2.388,2.388,0,0,0,48.9,35.573Z" fill="#fff"/>
</svg>
