<svg xmlns="http://www.w3.org/2000/svg" width="150.857" height="132" viewBox="0 0 150.857 132"><path d="M136.714,68.25H113.143V49.393A18.875,18.875,0,0,1,132,30.536h2.357a7.054,7.054,0,0,0,7.071-7.071V9.321a7.054,7.054,0,0,0-7.071-7.071H132A47.13,47.13,0,0,0,84.857,49.393v70.714A14.147,14.147,0,0,0,99,134.25h37.714a14.147,14.147,0,0,0,14.143-14.143V82.393A14.147,14.147,0,0,0,136.714,68.25Zm-84.857,0H28.286V49.393A18.875,18.875,0,0,1,47.143,30.536H49.5a7.054,7.054,0,0,0,7.071-7.071V9.321A7.054,7.054,0,0,0,49.5,2.25H47.143A47.13,47.13,0,0,0,0,49.393v70.714A14.147,14.147,0,0,0,14.143,134.25H51.857A14.147,14.147,0,0,0,66,120.107V82.393A14.147,14.147,0,0,0,51.857,68.25Z" transform="translate(0 -2.25)" fill="#65ff00" opacity="0.1"/></svg>